STARTFONT 2.3
FONT -FontForge-Open Sans-Book-R-Normal-Sans--8-80-72-72-P-46-ISO10646-1
SIZE 8 72 72  2
FONTBOUNDINGBOX 14 11 -4 -2
COMMENT "Generated by fontforge, http://fontforge.sourceforge.net"
COMMENT "Digitized data copyright (c) 2010-2011, Google Corporation."
STARTPROPERTIES 41
FOUNDRY "FontForge"
FAMILY_NAME "Open Sans"
WEIGHT_NAME "Book"
SLANT "R"
SETWIDTH_NAME "Normal"
ADD_STYLE_NAME "Sans"
PIXEL_SIZE 8
POINT_SIZE 80
RESOLUTION_X 72
RESOLUTION_Y 72
SPACING "P"
AVERAGE_WIDTH 46
CHARSET_REGISTRY "ISO10646"
CHARSET_ENCODING "1"
FONTNAME_REGISTRY ""
CHARSET_COLLECTIONS "ISO8859-2 ISO8859-5 ISO8859-7 ISO8859-9 ISO8859-4 ISO10646-1"
BITS_PER_PIXEL 2
FONT_NAME "OpenSans-Regular"
FACE_NAME "Open Sans Regular"
COPYRIGHT "Digitized data copyright (c) 2010-2011, Google Corporation."
FONT_VERSION "1.10"
FONT_ASCENT 6
FONT_DESCENT 2
UNDERLINE_POSITION -1
UNDERLINE_THICKNESS 1
X_HEIGHT 4
CAP_HEIGHT 5
RAW_ASCENT 799
RAW_DESCENT 200
NORM_SPACE 2
RELATIVE_WEIGHT 40
RELATIVE_SETWIDTH 50
SUPERSCRIPT_X 0
SUPERSCRIPT_Y 3
SUPERSCRIPT_SIZE 5
SUBSCRIPT_X 0
SUBSCRIPT_Y 1
SUBSCRIPT_SIZE 5
FIGURE_WIDTH 5
AVG_LOWERCASE_WIDTH 44
AVG_UPPERCASE_WIDTH 52
ENDPROPERTIES
CHARS 938
STARTCHAR space
ENCODING 32
SWIDTH 259 0
DWIDTH 2 0
BBX 1 1 0 0
BITMAP
00
ENDCHAR
STARTCHAR exclam
ENCODING 33
SWIDTH 267 0
DWIDTH 2 0
BBX 2 6 0 0
BITMAP
50
50
50
50
00
50
ENDCHAR
STARTCHAR quotedbl
ENCODING 34
SWIDTH 400 0
DWIDTH 3 0
BBX 3 2 0 4
BITMAP
44
48
ENDCHAR
STARTCHAR numbersign
ENCODING 35
SWIDTH 645 0
DWIDTH 5 0
BBX 5 6 0 0
BITMAP
0500
1500
6A40
2600
6640
2500
ENDCHAR
STARTCHAR dollar
ENCODING 36
SWIDTH 571 0
DWIDTH 5 0
BBX 4 7 0 -1
BITMAP
18
69
68
0A
0A
69
04
ENDCHAR
STARTCHAR percent
ENCODING 37
SWIDTH 823 0
DWIDTH 7 0
BBX 6 6 0 0
BITMAP
6440
8840
8A50
2550
0850
14A0
ENDCHAR
STARTCHAR ampersand
ENCODING 38
SWIDTH 729 0
DWIDTH 6 0
BBX 6 6 0 0
BITMAP
1900
2200
2900
6950
8280
6A90
ENDCHAR
STARTCHAR quotesingle
ENCODING 39
SWIDTH 221 0
DWIDTH 2 0
BBX 1 2 0 4
BITMAP
40
40
ENDCHAR
STARTCHAR parenleft
ENCODING 40
SWIDTH 295 0
DWIDTH 2 0
BBX 2 7 0 -1
BITMAP
10
50
80
80
80
50
20
ENDCHAR
STARTCHAR parenright
ENCODING 41
SWIDTH 295 0
DWIDTH 2 0
BBX 2 7 0 -1
BITMAP
40
20
20
20
20
20
50
ENDCHAR
STARTCHAR asterisk
ENCODING 42
SWIDTH 551 0
DWIDTH 4 0
BBX 4 4 0 2
BITMAP
08
6A
28
10
ENDCHAR
STARTCHAR plus
ENCODING 43
SWIDTH 571 0
DWIDTH 5 0
BBX 4 4 0 1
BITMAP
04
08
59
08
ENDCHAR
STARTCHAR comma
ENCODING 44
SWIDTH 245 0
DWIDTH 2 0
BBX 2 2 0 -1
BITMAP
50
80
ENDCHAR
STARTCHAR hyphen
ENCODING 45
SWIDTH 321 0
DWIDTH 3 0
BBX 2 1 0 2
BITMAP
50
ENDCHAR
STARTCHAR period
ENCODING 46
SWIDTH 266 0
DWIDTH 2 0
BBX 2 1 0 0
BITMAP
50
ENDCHAR
STARTCHAR slash
ENCODING 47
SWIDTH 367 0
DWIDTH 3 0
BBX 3 6 0 0
BITMAP
04
14
20
20
50
80
ENDCHAR
STARTCHAR zero
ENCODING 48
SWIDTH 571 0
DWIDTH 5 0
BBX 4 6 0 0
BITMAP
29
52
82
82
52
29
ENDCHAR
STARTCHAR one
ENCODING 49
SWIDTH 571 0
DWIDTH 5 0
BBX 2 6 1 0
BITMAP
60
A0
20
20
20
20
ENDCHAR
STARTCHAR two
ENCODING 50
SWIDTH 571 0
DWIDTH 5 0
BBX 4 6 0 0
BITMAP
29
02
02
08
24
AA
ENDCHAR
STARTCHAR three
ENCODING 51
SWIDTH 571 0
DWIDTH 5 0
BBX 4 6 0 0
BITMAP
69
02
15
16
02
6A
ENDCHAR
STARTCHAR four
ENCODING 52
SWIDTH 571 0
DWIDTH 5 0
BBX 5 6 0 0
BITMAP
0500
0A00
2200
5200
AA40
0200
ENDCHAR
STARTCHAR five
ENCODING 53
SWIDTH 571 0
DWIDTH 5 0
BBX 4 6 0 0
BITMAP
29
50
64
02
02
69
ENDCHAR
STARTCHAR six
ENCODING 54
SWIDTH 571 0
DWIDTH 5 0
BBX 4 6 0 0
BITMAP
19
20
59
92
52
2A
ENDCHAR
STARTCHAR seven
ENCODING 55
SWIDTH 571 0
DWIDTH 5 0
BBX 4 6 0 0
BITMAP
6A
02
05
08
18
20
ENDCHAR
STARTCHAR eight
ENCODING 56
SWIDTH 571 0
DWIDTH 5 0
BBX 4 6 0 0
BITMAP
29
52
25
26
82
66
ENDCHAR
STARTCHAR nine
ENCODING 57
SWIDTH 571 0
DWIDTH 5 0
BBX 4 6 0 0
BITMAP
29
52
82
26
02
19
ENDCHAR
STARTCHAR colon
ENCODING 58
SWIDTH 266 0
DWIDTH 2 0
BBX 2 4 0 0
BITMAP
50
00
00
50
ENDCHAR
STARTCHAR semicolon
ENCODING 59
SWIDTH 266 0
DWIDTH 2 0
BBX 2 5 0 -1
BITMAP
50
00
00
50
80
ENDCHAR
STARTCHAR less
ENCODING 60
SWIDTH 571 0
DWIDTH 5 0
BBX 4 4 0 1
BITMAP
01
14
64
06
ENDCHAR
STARTCHAR equal
ENCODING 61
SWIDTH 571 0
DWIDTH 5 0
BBX 4 3 0 1
BITMAP
6A
15
15
ENDCHAR
STARTCHAR greater
ENCODING 62
SWIDTH 571 0
DWIDTH 5 0
BBX 4 4 0 1
BITMAP
50
19
06
60
ENDCHAR
STARTCHAR question
ENCODING 63
SWIDTH 429 0
DWIDTH 3 0
BBX 4 6 0 0
BITMAP
68
05
08
20
10
20
ENDCHAR
STARTCHAR at
ENCODING 64
SWIDTH 898 0
DWIDTH 7 0
BBX 7 7 0 -1
BITMAP
0590
2024
5588
4888
4994
2000
0A80
ENDCHAR
STARTCHAR A
ENCODING 65
SWIDTH 632 0
DWIDTH 5 0
BBX 5 6 0 0
BITMAP
0800
1900
2200
2600
5540
8080
ENDCHAR
STARTCHAR B
ENCODING 66
SWIDTH 647 0
DWIDTH 5 0
BBX 5 6 0 0
BITMAP
2A00
5140
6640
6540
5080
6A40
ENDCHAR
STARTCHAR C
ENCODING 67
SWIDTH 630 0
DWIDTH 5 0
BBX 5 6 0 0
BITMAP
1A40
2000
5000
5000
6000
2A40
ENDCHAR
STARTCHAR D
ENCODING 68
SWIDTH 729 0
DWIDTH 6 0
BBX 6 6 0 0
BITMAP
2A00
5080
5050
5050
5080
6A40
ENDCHAR
STARTCHAR E
ENCODING 69
SWIDTH 556 0
DWIDTH 4 0
BBX 4 6 0 0
BITMAP
2A
50
65
65
50
6A
ENDCHAR
STARTCHAR F
ENCODING 70
SWIDTH 516 0
DWIDTH 4 0
BBX 4 6 0 0
BITMAP
2A
50
50
69
50
50
ENDCHAR
STARTCHAR G
ENCODING 71
SWIDTH 728 0
DWIDTH 6 0
BBX 6 6 0 0
BITMAP
1A80
2000
5000
5190
6050
1A90
ENDCHAR
STARTCHAR H
ENCODING 72
SWIDTH 737 0
DWIDTH 6 0
BBX 5 6 0 0
BITMAP
1040
5080
6580
6580
5080
5080
ENDCHAR
STARTCHAR I
ENCODING 73
SWIDTH 278 0
DWIDTH 2 0
BBX 2 6 0 0
BITMAP
10
50
50
50
50
50
ENDCHAR
STARTCHAR J
ENCODING 74
SWIDTH 267 0
DWIDTH 2 0
BBX 3 8 -1 -2
BITMAP
14
14
14
14
14
14
24
50
ENDCHAR
STARTCHAR K
ENCODING 75
SWIDTH 613 0
DWIDTH 5 0
BBX 5 6 0 0
BITMAP
1140
5200
6800
6800
5200
5180
ENDCHAR
STARTCHAR L
ENCODING 76
SWIDTH 519 0
DWIDTH 4 0
BBX 4 6 0 0
BITMAP
10
50
50
50
50
6A
ENDCHAR
STARTCHAR M
ENCODING 77
SWIDTH 902 0
DWIDTH 7 0
BBX 7 6 0 0
BITMAP
2014
6424
5854
5894
5654
5314
ENDCHAR
STARTCHAR N
ENCODING 78
SWIDTH 753 0
DWIDTH 6 0
BBX 6 6 0 0
BITMAP
2050
6450
5850
5250
5190
5090
ENDCHAR
STARTCHAR O
ENCODING 79
SWIDTH 778 0
DWIDTH 6 0
BBX 6 6 0 0
BITMAP
1A40
2050
5020
5020
5050
2A80
ENDCHAR
STARTCHAR P
ENCODING 80
SWIDTH 602 0
DWIDTH 5 0
BBX 5 6 0 0
BITMAP
2900
5140
5140
6900
5000
5000
ENDCHAR
STARTCHAR Q
ENCODING 81
SWIDTH 778 0
DWIDTH 6 0
BBX 6 8 0 -2
BITMAP
1A40
2050
5020
5020
5050
2A80
0180
0040
ENDCHAR
STARTCHAR R
ENCODING 82
SWIDTH 618 0
DWIDTH 5 0
BBX 5 6 0 0
BITMAP
2900
5140
5140
6A00
5200
5180
ENDCHAR
STARTCHAR S
ENCODING 83
SWIDTH 548 0
DWIDTH 4 0
BBX 4 6 0 0
BITMAP
29
50
60
0A
02
6A
ENDCHAR
STARTCHAR T
ENCODING 84
SWIDTH 553 0
DWIDTH 4 0
BBX 5 6 0 0
BITMAP
AA40
0800
0800
0800
0800
0800
ENDCHAR
STARTCHAR U
ENCODING 85
SWIDTH 728 0
DWIDTH 6 0
BBX 5 6 0 0
BITMAP
5040
5080
5080
5080
5080
2A40
ENDCHAR
STARTCHAR V
ENCODING 86
SWIDTH 595 0
DWIDTH 5 0
BBX 5 6 0 0
BITMAP
8040
8140
5200
2200
1900
0C00
ENDCHAR
STARTCHAR W
ENCODING 87
SWIDTH 925 0
DWIDTH 7 0
BBX 7 6 0 0
BITMAP
8204
8248
5588
2894
2860
2430
ENDCHAR
STARTCHAR X
ENCODING 88
SWIDTH 577 0
DWIDTH 5 0
BBX 5 6 0 0
BITMAP
4100
2200
1800
1800
2200
8140
ENDCHAR
STARTCHAR Y
ENCODING 89
SWIDTH 560 0
DWIDTH 4 0
BBX 5 6 0 0
BITMAP
8140
5200
2500
1800
0800
0800
ENDCHAR
STARTCHAR Z
ENCODING 90
SWIDTH 570 0
DWIDTH 5 0
BBX 4 6 0 0
BITMAP
6A
02
08
14
20
AA
ENDCHAR
STARTCHAR bracketleft
ENCODING 91
SWIDTH 329 0
DWIDTH 3 0
BBX 3 8 0 -2
BITMAP
64
50
50
50
50
50
60
10
ENDCHAR
STARTCHAR backslash
ENCODING 92
SWIDTH 367 0
DWIDTH 3 0
BBX 3 6 0 0
BITMAP
40
50
20
20
14
08
ENDCHAR
STARTCHAR bracketright
ENCODING 93
SWIDTH 329 0
DWIDTH 3 0
BBX 2 8 0 -2
BITMAP
60
20
20
20
20
20
60
50
ENDCHAR
STARTCHAR asciicircum
ENCODING 94
SWIDTH 541 0
DWIDTH 4 0
BBX 4 4 0 2
BITMAP
14
28
51
41
ENDCHAR
STARTCHAR underscore
ENCODING 95
SWIDTH 448 0
DWIDTH 4 0
BBX 4 2 0 -2
BITMAP
55
54
ENDCHAR
STARTCHAR grave
ENCODING 96
SWIDTH 577 0
DWIDTH 5 0
BBX 1 1 2 5
BITMAP
80
ENDCHAR
STARTCHAR a
ENCODING 97
SWIDTH 556 0
DWIDTH 4 0
BBX 4 5 0 0
BITMAP
14
16
16
92
6A
ENDCHAR
STARTCHAR b
ENCODING 98
SWIDTH 612 0
DWIDTH 5 0
BBX 5 6 0 0
BITMAP
5000
5400
6600
5140
5140
6A00
ENDCHAR
STARTCHAR c
ENCODING 99
SWIDTH 476 0
DWIDTH 4 0
BBX 4 5 0 0
BITMAP
04
64
50
50
29
ENDCHAR
STARTCHAR d
ENCODING 100
SWIDTH 612 0
DWIDTH 5 0
BBX 5 6 0 0
BITMAP
0140
0540
6640
5140
5240
2A40
ENDCHAR
STARTCHAR e
ENCODING 101
SWIDTH 561 0
DWIDTH 4 0
BBX 4 5 0 0
BITMAP
04
66
6A
50
2A
ENDCHAR
STARTCHAR f
ENCODING 102
SWIDTH 338 0
DWIDTH 3 0
BBX 3 6 0 0
BITMAP
24
64
60
20
20
20
ENDCHAR
STARTCHAR g
ENCODING 103
SWIDTH 547 0
DWIDTH 4 0
BBX 4 7 0 -2
BITMAP
15
56
56
24
69
82
69
ENDCHAR
STARTCHAR h
ENCODING 104
SWIDTH 613 0
DWIDTH 5 0
BBX 5 6 0 0
BITMAP
5000
5500
6600
5140
5140
5140
ENDCHAR
STARTCHAR i
ENCODING 105
SWIDTH 252 0
DWIDTH 2 0
BBX 2 6 0 0
BITMAP
50
00
50
50
50
50
ENDCHAR
STARTCHAR j
ENCODING 106
SWIDTH 252 0
DWIDTH 2 0
BBX 3 8 -1 -2
BITMAP
14
00
14
14
14
14
14
60
ENDCHAR
STARTCHAR k
ENCODING 107
SWIDTH 524 0
DWIDTH 4 0
BBX 4 6 0 0
BITMAP
50
51
55
64
58
52
ENDCHAR
STARTCHAR l
ENCODING 108
SWIDTH 252 0
DWIDTH 2 0
BBX 2 6 0 0
BITMAP
50
50
50
50
50
50
ENDCHAR
STARTCHAR m
ENCODING 109
SWIDTH 930 0
DWIDTH 7 0
BBX 7 5 0 0
BITMAP
0410
6658
5208
5208
5208
ENDCHAR
STARTCHAR n
ENCODING 110
SWIDTH 613 0
DWIDTH 5 0
BBX 5 5 0 0
BITMAP
0500
6600
5140
5140
5140
ENDCHAR
STARTCHAR o
ENCODING 111
SWIDTH 604 0
DWIDTH 5 0
BBX 5 5 0 0
BITMAP
0400
6600
5140
5140
2A00
ENDCHAR
STARTCHAR p
ENCODING 112
SWIDTH 612 0
DWIDTH 5 0
BBX 5 7 0 -2
BITMAP
0400
6600
5140
5140
6A00
5000
5000
ENDCHAR
STARTCHAR q
ENCODING 113
SWIDTH 612 0
DWIDTH 5 0
BBX 5 7 0 -2
BITMAP
0400
6640
9140
5240
2A40
0140
0140
ENDCHAR
STARTCHAR r
ENCODING 114
SWIDTH 408 0
DWIDTH 3 0
BBX 3 5 0 0
BITMAP
04
64
50
50
50
ENDCHAR
STARTCHAR s
ENCODING 115
SWIDTH 477 0
DWIDTH 4 0
BBX 4 5 0 0
BITMAP
14
54
64
05
59
ENDCHAR
STARTCHAR t
ENCODING 116
SWIDTH 353 0
DWIDTH 3 0
BBX 3 5 0 0
BITMAP
64
60
50
50
24
ENDCHAR
STARTCHAR u
ENCODING 117
SWIDTH 613 0
DWIDTH 5 0
BBX 5 4 0 0
BITMAP
5140
5140
5140
2A40
ENDCHAR
STARTCHAR v
ENCODING 118
SWIDTH 500 0
DWIDTH 4 0
BBX 4 5 0 0
BITMAP
41
82
55
28
28
ENDCHAR
STARTCHAR w
ENCODING 119
SWIDTH 777 0
DWIDTH 6 0
BBX 6 5 0 0
BITMAP
4000
8620
5A20
2590
34C0
ENDCHAR
STARTCHAR x
ENCODING 120
SWIDTH 523 0
DWIDTH 4 0
BBX 4 5 0 0
BITMAP
41
55
28
28
52
ENDCHAR
STARTCHAR y
ENCODING 121
SWIDTH 503 0
DWIDTH 4 0
BBX 4 7 0 -2
BITMAP
41
82
55
28
18
14
A0
ENDCHAR
STARTCHAR z
ENCODING 122
SWIDTH 467 0
DWIDTH 4 0
BBX 4 5 0 0
BITMAP
14
19
14
20
A9
ENDCHAR
STARTCHAR braceleft
ENCODING 123
SWIDTH 378 0
DWIDTH 3 0
BBX 3 7 0 -1
BITMAP
14
20
20
50
20
20
24
ENDCHAR
STARTCHAR bar
ENCODING 124
SWIDTH 550 0
DWIDTH 4 0
BBX 1 8 2 -2
BITMAP
40
40
40
40
40
40
40
40
ENDCHAR
STARTCHAR braceright
ENCODING 125
SWIDTH 378 0
DWIDTH 3 0
BBX 3 7 0 -1
BITMAP
50
20
20
14
20
20
60
ENDCHAR
STARTCHAR asciitilde
ENCODING 126
SWIDTH 571 0
DWIDTH 5 0
BBX 4 2 0 2
BITMAP
10
5A
ENDCHAR
STARTCHAR nonbreakingspace
ENCODING 160
SWIDTH 259 0
DWIDTH 2 0
BBX 1 1 0 0
BITMAP
00
ENDCHAR
STARTCHAR exclamdown
ENCODING 161
SWIDTH 267 0
DWIDTH 2 0
BBX 2 6 0 -2
BITMAP
50
10
50
50
50
10
ENDCHAR
STARTCHAR cent
ENCODING 162
SWIDTH 571 0
DWIDTH 5 0
BBX 4 6 0 0
BITMAP
04
25
60
50
25
08
ENDCHAR
STARTCHAR sterling
ENCODING 163
SWIDTH 571 0
DWIDTH 5 0
BBX 4 6 0 0
BITMAP
1A
20
20
64
20
AA
ENDCHAR
STARTCHAR currency
ENCODING 164
SWIDTH 571 0
DWIDTH 5 0
BBX 4 4 0 1
BITMAP
55
26
52
6A
ENDCHAR
STARTCHAR yen
ENCODING 165
SWIDTH 571 0
DWIDTH 5 0
BBX 5 6 0 0
BITMAP
4140
5200
2500
2D00
2900
0800
ENDCHAR
STARTCHAR brokenbar
ENCODING 166
SWIDTH 550 0
DWIDTH 4 0
BBX 1 8 2 -2
BITMAP
40
40
40
00
00
40
40
40
ENDCHAR
STARTCHAR section
ENCODING 167
SWIDTH 516 0
DWIDTH 4 0
BBX 4 6 0 0
BITMAP
65
64
55
65
05
69
ENDCHAR
STARTCHAR dieresis
ENCODING 168
SWIDTH 577 0
DWIDTH 5 0
BBX 3 1 1 5
BITMAP
44
ENDCHAR
STARTCHAR copyright
ENCODING 169
SWIDTH 832 0
DWIDTH 7 0
BBX 7 6 0 0
BITMAP
0540
1660
4810
4814
5620
1550
ENDCHAR
STARTCHAR ordfeminine
ENCODING 170
SWIDTH 354 0
DWIDTH 3 0
BBX 3 3 0 3
BITMAP
54
54
54
ENDCHAR
STARTCHAR guillemotleft
ENCODING 171
SWIDTH 497 0
DWIDTH 4 0
BBX 4 4 0 0
BITMAP
11
58
58
11
ENDCHAR
STARTCHAR logicalnot
ENCODING 172
SWIDTH 571 0
DWIDTH 5 0
BBX 4 2 0 1
BITMAP
56
01
ENDCHAR
STARTCHAR uni00AD
ENCODING 173
SWIDTH 321 0
DWIDTH 3 0
BBX 2 1 0 2
BITMAP
50
ENDCHAR
STARTCHAR registered
ENCODING 174
SWIDTH 832 0
DWIDTH 7 0
BBX 7 6 0 0
BITMAP
0540
1660
4950
4A14
5860
1550
ENDCHAR
STARTCHAR overscore
ENCODING 175
SWIDTH 500 0
DWIDTH 4 0
BBX 4 1 0 6
BITMAP
AA
ENDCHAR
STARTCHAR degree
ENCODING 176
SWIDTH 428 0
DWIDTH 3 0
BBX 3 3 0 3
BITMAP
24
44
14
ENDCHAR
STARTCHAR plusminus
ENCODING 177
SWIDTH 571 0
DWIDTH 5 0
BBX 4 5 0 0
BITMAP
04
08
59
08
6A
ENDCHAR
STARTCHAR twosuperior
ENCODING 178
SWIDTH 347 0
DWIDTH 3 0
BBX 3 4 0 2
BITMAP
54
14
10
94
ENDCHAR
STARTCHAR threesuperior
ENCODING 179
SWIDTH 347 0
DWIDTH 3 0
BBX 3 4 0 2
BITMAP
54
14
14
54
ENDCHAR
STARTCHAR acute
ENCODING 180
SWIDTH 577 0
DWIDTH 5 0
BBX 1 1 2 5
BITMAP
80
ENDCHAR
STARTCHAR mu
ENCODING 181
SWIDTH 619 0
DWIDTH 5 0
BBX 5 6 0 -2
BITMAP
5140
5140
5140
6640
5000
5000
ENDCHAR
STARTCHAR paragraph
ENCODING 182
SWIDTH 654 0
DWIDTH 5 0
BBX 5 7 0 -1
BITMAP
7D40
BC40
7C40
2C40
0440
0440
0440
ENDCHAR
STARTCHAR periodcentered
ENCODING 183
SWIDTH 266 0
DWIDTH 2 0
BBX 2 1 0 2
BITMAP
50
ENDCHAR
STARTCHAR cedilla
ENCODING 184
SWIDTH 227 0
DWIDTH 2 0
BBX 2 2 0 -2
BITMAP
50
50
ENDCHAR
STARTCHAR onesuperior
ENCODING 185
SWIDTH 347 0
DWIDTH 3 0
BBX 2 4 0 2
BITMAP
60
20
20
10
ENDCHAR
STARTCHAR ordmasculine
ENCODING 186
SWIDTH 375 0
DWIDTH 3 0
BBX 3 3 0 3
BITMAP
54
44
54
ENDCHAR
STARTCHAR guillemotright
ENCODING 187
SWIDTH 497 0
DWIDTH 4 0
BBX 4 4 0 0
BITMAP
44
25
25
44
ENDCHAR
STARTCHAR onequarter
ENCODING 188
SWIDTH 779 0
DWIDTH 6 0
BBX 6 6 0 0
BITMAP
6040
2140
2240
1590
0650
2050
ENDCHAR
STARTCHAR onehalf
ENCODING 189
SWIDTH 779 0
DWIDTH 6 0
BBX 6 6 0 0
BITMAP
5040
2100
2250
1820
1450
1190
ENDCHAR
STARTCHAR threequarters
ENCODING 190
SWIDTH 779 0
DWIDTH 6 0
BBX 6 6 0 0
BITMAP
5040
1480
1510
5560
0960
1460
ENDCHAR
STARTCHAR questiondown
ENCODING 191
SWIDTH 429 0
DWIDTH 3 0
BBX 3 6 0 -2
BITMAP
14
14
20
80
80
14
ENDCHAR
STARTCHAR Agrave
ENCODING 192
SWIDTH 632 0
DWIDTH 5 0
BBX 5 8 0 0
BITMAP
1000
0400
0800
1900
2200
2600
5540
8080
ENDCHAR
STARTCHAR Aacute
ENCODING 193
SWIDTH 632 0
DWIDTH 5 0
BBX 5 8 0 0
BITMAP
0100
0400
0800
1900
2200
2600
5540
8080
ENDCHAR
STARTCHAR Acircumflex
ENCODING 194
SWIDTH 632 0
DWIDTH 5 0
BBX 5 8 0 0
BITMAP
0400
1500
0800
1900
2200
2600
5540
8080
ENDCHAR
STARTCHAR Atilde
ENCODING 195
SWIDTH 632 0
DWIDTH 5 0
BBX 5 7 0 0
BITMAP
1900
0800
1900
2200
2600
5540
8080
ENDCHAR
STARTCHAR Adieresis
ENCODING 196
SWIDTH 632 0
DWIDTH 5 0
BBX 5 7 0 0
BITMAP
1100
0800
1900
2200
2600
5540
8080
ENDCHAR
STARTCHAR Aring
ENCODING 197
SWIDTH 632 0
DWIDTH 5 0
BBX 5 7 0 0
BITMAP
1500
0C00
1900
2200
2600
5540
8080
ENDCHAR
STARTCHAR AE
ENCODING 198
SWIDTH 873 0
DWIDTH 7 0
BBX 7 6 0 0
BITMAP
06A4
0940
1550
2650
5640
81A4
ENDCHAR
STARTCHAR Ccedilla
ENCODING 199
SWIDTH 630 0
DWIDTH 5 0
BBX 5 8 0 -2
BITMAP
1A40
2000
5000
5000
6000
2A40
0500
0500
ENDCHAR
STARTCHAR Egrave
ENCODING 200
SWIDTH 556 0
DWIDTH 4 0
BBX 4 8 0 0
BITMAP
10
04
2A
50
65
65
50
6A
ENDCHAR
STARTCHAR Eacute
ENCODING 201
SWIDTH 556 0
DWIDTH 4 0
BBX 4 8 0 0
BITMAP
04
04
2A
50
65
65
50
6A
ENDCHAR
STARTCHAR Ecircumflex
ENCODING 202
SWIDTH 556 0
DWIDTH 4 0
BBX 4 8 0 0
BITMAP
04
15
2A
50
65
65
50
6A
ENDCHAR
STARTCHAR Edieresis
ENCODING 203
SWIDTH 556 0
DWIDTH 4 0
BBX 4 7 0 0
BITMAP
11
2A
50
65
65
50
6A
ENDCHAR
STARTCHAR Igrave
ENCODING 204
SWIDTH 278 0
DWIDTH 2 0
BBX 2 8 0 0
BITMAP
40
50
10
50
50
50
50
50
ENDCHAR
STARTCHAR Iacute
ENCODING 205
SWIDTH 278 0
DWIDTH 2 0
BBX 2 8 0 0
BITMAP
10
10
10
50
50
50
50
50
ENDCHAR
STARTCHAR Icircumflex
ENCODING 206
SWIDTH 278 0
DWIDTH 2 0
BBX 2 8 0 0
BITMAP
50
50
10
50
50
50
50
50
ENDCHAR
STARTCHAR Idieresis
ENCODING 207
SWIDTH 278 0
DWIDTH 2 0
BBX 2 7 0 0
BITMAP
50
10
50
50
50
50
50
ENDCHAR
STARTCHAR Eth
ENCODING 208
SWIDTH 722 0
DWIDTH 6 0
BBX 6 6 0 0
BITMAP
2A00
5080
6090
6450
5080
6A40
ENDCHAR
STARTCHAR Ntilde
ENCODING 209
SWIDTH 753 0
DWIDTH 6 0
BBX 6 7 0 0
BITMAP
1640
2050
6450
5850
5250
5190
5090
ENDCHAR
STARTCHAR Ograve
ENCODING 210
SWIDTH 778 0
DWIDTH 6 0
BBX 6 8 0 0
BITMAP
0400
0500
1A40
2050
5020
5020
5050
2A80
ENDCHAR
STARTCHAR Oacute
ENCODING 211
SWIDTH 778 0
DWIDTH 6 0
BBX 6 8 0 0
BITMAP
0100
0500
1A40
2050
5020
5020
5050
2A80
ENDCHAR
STARTCHAR Ocircumflex
ENCODING 212
SWIDTH 778 0
DWIDTH 6 0
BBX 6 8 0 0
BITMAP
0500
0500
1A40
2050
5020
5020
5050
2A80
ENDCHAR
STARTCHAR Otilde
ENCODING 213
SWIDTH 778 0
DWIDTH 6 0
BBX 6 7 0 0
BITMAP
1640
1A40
2050
5020
5020
5050
2A80
ENDCHAR
STARTCHAR Odieresis
ENCODING 214
SWIDTH 778 0
DWIDTH 6 0
BBX 6 7 0 0
BITMAP
0500
1A40
2050
5020
5020
5050
2A80
ENDCHAR
STARTCHAR multiply
ENCODING 215
SWIDTH 571 0
DWIDTH 5 0
BBX 4 4 0 1
BITMAP
41
25
18
52
ENDCHAR
STARTCHAR Oslash
ENCODING 216
SWIDTH 778 0
DWIDTH 6 0
BBX 6 6 0 0
BITMAP
1A90
2090
5220
5520
6450
2A80
ENDCHAR
STARTCHAR Ugrave
ENCODING 217
SWIDTH 728 0
DWIDTH 6 0
BBX 5 8 0 0
BITMAP
0400
0400
5040
5080
5080
5080
5080
2A40
ENDCHAR
STARTCHAR Uacute
ENCODING 218
SWIDTH 728 0
DWIDTH 6 0
BBX 5 8 0 0
BITMAP
0100
0500
5040
5080
5080
5080
5080
2A40
ENDCHAR
STARTCHAR Ucircumflex
ENCODING 219
SWIDTH 728 0
DWIDTH 6 0
BBX 5 8 0 0
BITMAP
0400
0500
5040
5080
5080
5080
5080
2A40
ENDCHAR
STARTCHAR Udieresis
ENCODING 220
SWIDTH 728 0
DWIDTH 6 0
BBX 5 7 0 0
BITMAP
0500
5040
5080
5080
5080
5080
2A40
ENDCHAR
STARTCHAR Yacute
ENCODING 221
SWIDTH 560 0
DWIDTH 4 0
BBX 5 8 0 0
BITMAP
0400
0400
8140
5200
2500
1800
0800
0800
ENDCHAR
STARTCHAR Thorn
ENCODING 222
SWIDTH 610 0
DWIDTH 5 0
BBX 5 6 0 0
BITMAP
1000
6900
5140
5140
6900
5000
ENDCHAR
STARTCHAR germandbls
ENCODING 223
SWIDTH 622 0
DWIDTH 5 0
BBX 5 6 0 0
BITMAP
2600
5200
5800
5600
5180
5A40
ENDCHAR
STARTCHAR agrave
ENCODING 224
SWIDTH 556 0
DWIDTH 4 0
BBX 4 6 0 0
BITMAP
14
14
16
16
92
6A
ENDCHAR
STARTCHAR aacute
ENCODING 225
SWIDTH 556 0
DWIDTH 4 0
BBX 4 6 0 0
BITMAP
08
14
16
16
92
6A
ENDCHAR
STARTCHAR acircumflex
ENCODING 226
SWIDTH 556 0
DWIDTH 4 0
BBX 4 6 0 0
BITMAP
28
14
16
16
92
6A
ENDCHAR
STARTCHAR atilde
ENCODING 227
SWIDTH 556 0
DWIDTH 4 0
BBX 4 6 0 0
BITMAP
29
14
16
16
92
6A
ENDCHAR
STARTCHAR adieresis
ENCODING 228
SWIDTH 556 0
DWIDTH 4 0
BBX 4 6 0 0
BITMAP
14
14
16
16
92
6A
ENDCHAR
STARTCHAR aring
ENCODING 229
SWIDTH 556 0
DWIDTH 4 0
BBX 4 7 0 0
BITMAP
04
18
14
16
16
92
6A
ENDCHAR
STARTCHAR ae
ENCODING 230
SWIDTH 857 0
DWIDTH 7 0
BBX 7 5 0 0
BITMAP
1440
1664
17A4
9200
69A0
ENDCHAR
STARTCHAR ccedilla
ENCODING 231
SWIDTH 476 0
DWIDTH 4 0
BBX 4 7 0 -2
BITMAP
04
64
50
50
29
08
18
ENDCHAR
STARTCHAR egrave
ENCODING 232
SWIDTH 561 0
DWIDTH 4 0
BBX 4 6 0 0
BITMAP
14
04
66
6A
50
2A
ENDCHAR
STARTCHAR eacute
ENCODING 233
SWIDTH 561 0
DWIDTH 4 0
BBX 4 6 0 0
BITMAP
08
04
66
6A
50
2A
ENDCHAR
STARTCHAR ecircumflex
ENCODING 234
SWIDTH 561 0
DWIDTH 4 0
BBX 4 6 0 0
BITMAP
19
14
66
6A
50
2A
ENDCHAR
STARTCHAR edieresis
ENCODING 235
SWIDTH 561 0
DWIDTH 4 0
BBX 4 6 0 0
BITMAP
11
04
66
6A
50
2A
ENDCHAR
STARTCHAR igrave
ENCODING 236
SWIDTH 252 0
DWIDTH 2 0
BBX 2 6 0 0
BITMAP
80
00
50
50
50
50
ENDCHAR
STARTCHAR iacute
ENCODING 237
SWIDTH 252 0
DWIDTH 2 0
BBX 2 6 0 0
BITMAP
20
00
50
50
50
50
ENDCHAR
STARTCHAR icircumflex
ENCODING 238
SWIDTH 252 0
DWIDTH 2 0
BBX 2 6 0 0
BITMAP
A0
00
50
50
50
50
ENDCHAR
STARTCHAR idieresis
ENCODING 239
SWIDTH 252 0
DWIDTH 2 0
BBX 2 6 0 0
BITMAP
50
00
50
50
50
50
ENDCHAR
STARTCHAR eth
ENCODING 240
SWIDTH 596 0
DWIDTH 5 0
BBX 5 6 0 0
BITMAP
1A00
1600
2A40
5140
4140
2A00
ENDCHAR
STARTCHAR ntilde
ENCODING 241
SWIDTH 613 0
DWIDTH 5 0
BBX 5 6 0 0
BITMAP
1900
1500
6600
5140
5140
5140
ENDCHAR
STARTCHAR ograve
ENCODING 242
SWIDTH 604 0
DWIDTH 5 0
BBX 5 6 0 0
BITMAP
1400
0400
6600
5140
5140
2A00
ENDCHAR
STARTCHAR oacute
ENCODING 243
SWIDTH 604 0
DWIDTH 5 0
BBX 5 6 0 0
BITMAP
0800
0400
6600
5140
5140
2A00
ENDCHAR
STARTCHAR ocircumflex
ENCODING 244
SWIDTH 604 0
DWIDTH 5 0
BBX 5 6 0 0
BITMAP
1900
1500
6600
5140
5140
2A00
ENDCHAR
STARTCHAR otilde
ENCODING 245
SWIDTH 604 0
DWIDTH 5 0
BBX 5 6 0 0
BITMAP
2900
1400
6600
5140
5140
2A00
ENDCHAR
STARTCHAR odieresis
ENCODING 246
SWIDTH 604 0
DWIDTH 5 0
BBX 5 6 0 0
BITMAP
1100
0400
6600
5140
5140
2A00
ENDCHAR
STARTCHAR divide
ENCODING 247
SWIDTH 571 0
DWIDTH 5 0
BBX 4 4 0 1
BITMAP
04
04
55
08
ENDCHAR
STARTCHAR oslash
ENCODING 248
SWIDTH 604 0
DWIDTH 5 0
BBX 5 5 0 0
BITMAP
0500
6700
5940
6540
7A00
ENDCHAR
STARTCHAR ugrave
ENCODING 249
SWIDTH 613 0
DWIDTH 5 0
BBX 5 6 0 0
BITMAP
1400
0000
5140
5140
5140
2A40
ENDCHAR
STARTCHAR uacute
ENCODING 250
SWIDTH 613 0
DWIDTH 5 0
BBX 5 6 0 0
BITMAP
0800
0000
5140
5140
5140
2A40
ENDCHAR
STARTCHAR ucircumflex
ENCODING 251
SWIDTH 613 0
DWIDTH 5 0
BBX 5 6 0 0
BITMAP
1900
1100
5140
5140
5140
2A40
ENDCHAR
STARTCHAR udieresis
ENCODING 252
SWIDTH 613 0
DWIDTH 5 0
BBX 5 6 0 0
BITMAP
1100
0000
5140
5140
5140
2A40
ENDCHAR
STARTCHAR yacute
ENCODING 253
SWIDTH 503 0
DWIDTH 4 0
BBX 4 8 0 -2
BITMAP
08
41
82
55
28
18
14
A0
ENDCHAR
STARTCHAR thorn
ENCODING 254
SWIDTH 612 0
DWIDTH 5 0
BBX 5 8 0 -2
BITMAP
5000
5400
6600
5140
5140
6A00
5000
5000
ENDCHAR
STARTCHAR ydieresis
ENCODING 255
SWIDTH 503 0
DWIDTH 4 0
BBX 4 8 0 -2
BITMAP
14
41
82
55
28
18
14
A0
ENDCHAR
STARTCHAR Amacron
ENCODING 256
SWIDTH 632 0
DWIDTH 5 0
BBX 5 7 0 0
BITMAP
1900
0800
1900
2200
2600
5540
8080
ENDCHAR
STARTCHAR amacron
ENCODING 257
SWIDTH 556 0
DWIDTH 4 0
BBX 4 6 0 0
BITMAP
15
14
16
16
92
6A
ENDCHAR
STARTCHAR Abreve
ENCODING 258
SWIDTH 632 0
DWIDTH 5 0
BBX 5 7 0 0
BITMAP
1900
0800
1900
2200
2600
5540
8080
ENDCHAR
STARTCHAR abreve
ENCODING 259
SWIDTH 556 0
DWIDTH 4 0
BBX 4 6 0 0
BITMAP
15
14
16
16
92
6A
ENDCHAR
STARTCHAR Aogonek
ENCODING 260
SWIDTH 632 0
DWIDTH 5 0
BBX 5 8 0 -2
BITMAP
0800
1900
2200
2600
5540
8080
0040
0080
ENDCHAR
STARTCHAR aogonek
ENCODING 261
SWIDTH 556 0
DWIDTH 4 0
BBX 4 7 0 -2
BITMAP
14
16
16
92
6A
01
02
ENDCHAR
STARTCHAR Cacute
ENCODING 262
SWIDTH 630 0
DWIDTH 5 0
BBX 5 8 0 0
BITMAP
0100
0500
1A40
2000
5000
5000
6000
2A40
ENDCHAR
STARTCHAR cacute
ENCODING 263
SWIDTH 476 0
DWIDTH 4 0
BBX 4 6 0 0
BITMAP
08
04
64
50
50
29
ENDCHAR
STARTCHAR Ccircumflex
ENCODING 264
SWIDTH 630 0
DWIDTH 5 0
BBX 5 8 0 0
BITMAP
0500
0500
1A40
2000
5000
5000
6000
2A40
ENDCHAR
STARTCHAR ccircumflex
ENCODING 265
SWIDTH 476 0
DWIDTH 4 0
BBX 4 6 0 0
BITMAP
28
15
64
50
50
29
ENDCHAR
STARTCHAR Cdot
ENCODING 266
SWIDTH 630 0
DWIDTH 5 0
BBX 5 7 0 0
BITMAP
0100
1A40
2000
5000
5000
6000
2A40
ENDCHAR
STARTCHAR cdot
ENCODING 267
SWIDTH 476 0
DWIDTH 4 0
BBX 4 6 0 0
BITMAP
04
04
64
50
50
29
ENDCHAR
STARTCHAR Ccaron
ENCODING 268
SWIDTH 630 0
DWIDTH 5 0
BBX 5 8 0 0
BITMAP
0400
0600
1A40
2000
5000
5000
6000
2A40
ENDCHAR
STARTCHAR ccaron
ENCODING 269
SWIDTH 476 0
DWIDTH 4 0
BBX 4 6 0 0
BITMAP
19
04
64
50
50
29
ENDCHAR
STARTCHAR Dcaron
ENCODING 270
SWIDTH 729 0
DWIDTH 6 0
BBX 6 8 0 0
BITMAP
1100
0900
2A00
5080
5050
5050
5080
6A40
ENDCHAR
STARTCHAR dcaron
ENCODING 271
SWIDTH 612 0
DWIDTH 5 0
BBX 6 6 0 0
BITMAP
0150
0540
6640
5140
5240
2A40
ENDCHAR
STARTCHAR Dcroat
ENCODING 272
SWIDTH 722 0
DWIDTH 6 0
BBX 6 6 0 0
BITMAP
2A00
5080
6090
6450
5080
6A40
ENDCHAR
STARTCHAR dcroat
ENCODING 273
SWIDTH 612 0
DWIDTH 5 0
BBX 5 6 0 0
BITMAP
0640
1640
6640
5140
5240
2A40
ENDCHAR
STARTCHAR Emacron
ENCODING 274
SWIDTH 556 0
DWIDTH 4 0
BBX 4 7 0 0
BITMAP
19
2A
50
65
65
50
6A
ENDCHAR
STARTCHAR emacron
ENCODING 275
SWIDTH 561 0
DWIDTH 4 0
BBX 4 6 0 0
BITMAP
15
14
66
6A
50
2A
ENDCHAR
STARTCHAR Ebreve
ENCODING 276
SWIDTH 556 0
DWIDTH 4 0
BBX 4 7 0 0
BITMAP
19
2A
50
65
65
50
6A
ENDCHAR
STARTCHAR ebreve
ENCODING 277
SWIDTH 561 0
DWIDTH 4 0
BBX 4 6 0 0
BITMAP
15
04
66
6A
50
2A
ENDCHAR
STARTCHAR Edotaccent
ENCODING 278
SWIDTH 556 0
DWIDTH 4 0
BBX 4 7 0 0
BITMAP
04
2A
50
65
65
50
6A
ENDCHAR
STARTCHAR edotaccent
ENCODING 279
SWIDTH 561 0
DWIDTH 4 0
BBX 4 6 0 0
BITMAP
04
04
66
6A
50
2A
ENDCHAR
STARTCHAR Eogonek
ENCODING 280
SWIDTH 556 0
DWIDTH 4 0
BBX 4 8 0 -2
BITMAP
2A
50
65
65
50
6A
05
05
ENDCHAR
STARTCHAR eogonek
ENCODING 281
SWIDTH 561 0
DWIDTH 4 0
BBX 4 7 0 -2
BITMAP
04
66
6A
50
2A
05
01
ENDCHAR
STARTCHAR Ecaron
ENCODING 282
SWIDTH 556 0
DWIDTH 4 0
BBX 4 8 0 0
BITMAP
11
18
2A
50
65
65
50
6A
ENDCHAR
STARTCHAR ecaron
ENCODING 283
SWIDTH 561 0
DWIDTH 4 0
BBX 4 6 0 0
BITMAP
19
04
66
6A
50
2A
ENDCHAR
STARTCHAR Gcircumflex
ENCODING 284
SWIDTH 728 0
DWIDTH 6 0
BBX 6 8 0 0
BITMAP
0100
0540
1A80
2000
5000
5190
6050
1A90
ENDCHAR
STARTCHAR gcircumflex
ENCODING 285
SWIDTH 547 0
DWIDTH 4 0
BBX 4 8 0 -2
BITMAP
28
15
56
56
24
69
82
69
ENDCHAR
STARTCHAR Gbreve
ENCODING 286
SWIDTH 728 0
DWIDTH 6 0
BBX 6 7 0 0
BITMAP
0640
1A80
2000
5000
5190
6050
1A90
ENDCHAR
STARTCHAR gbreve
ENCODING 287
SWIDTH 547 0
DWIDTH 4 0
BBX 4 8 0 -2
BITMAP
29
15
56
56
24
69
82
69
ENDCHAR
STARTCHAR Gdot
ENCODING 288
SWIDTH 728 0
DWIDTH 6 0
BBX 6 7 0 0
BITMAP
0100
1A80
2000
5000
5190
6050
1A90
ENDCHAR
STARTCHAR gdot
ENCODING 289
SWIDTH 547 0
DWIDTH 4 0
BBX 4 8 0 -2
BITMAP
04
15
56
56
24
69
82
69
ENDCHAR
STARTCHAR Gcommaaccent
ENCODING 290
SWIDTH 728 0
DWIDTH 6 0
BBX 6 8 0 -2
BITMAP
1A80
2000
5000
5190
6050
1A90
0100
0400
ENDCHAR
STARTCHAR gcommaaccent
ENCODING 291
SWIDTH 547 0
DWIDTH 4 0
BBX 4 8 0 -2
BITMAP
08
15
56
56
24
69
82
69
ENDCHAR
STARTCHAR Hcircumflex
ENCODING 292
SWIDTH 737 0
DWIDTH 6 0
BBX 5 8 0 0
BITMAP
0500
0500
1040
5080
6580
6580
5080
5080
ENDCHAR
STARTCHAR hcircumflex
ENCODING 293
SWIDTH 613 0
DWIDTH 5 0
BBX 5 8 0 0
BITMAP
0800
1100
5000
5500
6600
5140
5140
5140
ENDCHAR
STARTCHAR Hbar
ENCODING 294
SWIDTH 737 0
DWIDTH 6 0
BBX 6 6 0 0
BITMAP
1040
AAA0
6580
6580
5080
5080
ENDCHAR
STARTCHAR hbar
ENCODING 295
SWIDTH 613 0
DWIDTH 5 0
BBX 5 6 0 0
BITMAP
A400
5400
6600
5140
5140
5140
ENDCHAR
STARTCHAR Itilde
ENCODING 296
SWIDTH 278 0
DWIDTH 2 0
BBX 3 7 0 0
BITMAP
64
10
50
50
50
50
50
ENDCHAR
STARTCHAR itilde
ENCODING 297
SWIDTH 252 0
DWIDTH 2 0
BBX 4 6 -1 0
BITMAP
65
04
14
14
14
14
ENDCHAR
STARTCHAR Imacron
ENCODING 298
SWIDTH 278 0
DWIDTH 2 0
BBX 2 7 0 0
BITMAP
A0
10
50
50
50
50
50
ENDCHAR
STARTCHAR imacron
ENCODING 299
SWIDTH 252 0
DWIDTH 2 0
BBX 2 6 0 0
BITMAP
50
50
50
50
50
50
ENDCHAR
STARTCHAR Ibreve
ENCODING 300
SWIDTH 278 0
DWIDTH 2 0
BBX 2 7 0 0
BITMAP
60
10
50
50
50
50
50
ENDCHAR
STARTCHAR ibreve
ENCODING 301
SWIDTH 252 0
DWIDTH 2 0
BBX 2 6 0 0
BITMAP
A0
00
50
50
50
50
ENDCHAR
STARTCHAR Iogonek
ENCODING 302
SWIDTH 278 0
DWIDTH 2 0
BBX 2 8 0 -2
BITMAP
10
50
50
50
50
50
40
50
ENDCHAR
STARTCHAR iogonek
ENCODING 303
SWIDTH 252 0
DWIDTH 2 0
BBX 2 8 0 -2
BITMAP
50
00
50
50
50
50
40
50
ENDCHAR
STARTCHAR Idotaccent
ENCODING 304
SWIDTH 278 0
DWIDTH 2 0
BBX 2 7 0 0
BITMAP
10
10
50
50
50
50
50
ENDCHAR
STARTCHAR dotlessi
ENCODING 305
SWIDTH 252 0
DWIDTH 2 0
BBX 2 4 0 0
BITMAP
50
50
50
50
ENDCHAR
STARTCHAR IJ
ENCODING 306
SWIDTH 545 0
DWIDTH 4 0
BBX 4 8 0 -2
BITMAP
11
52
52
52
52
52
06
14
ENDCHAR
STARTCHAR ij
ENCODING 307
SWIDTH 505 0
DWIDTH 4 0
BBX 4 8 0 -2
BITMAP
55
00
55
55
55
55
05
18
ENDCHAR
STARTCHAR Jcircumflex
ENCODING 308
SWIDTH 267 0
DWIDTH 2 0
BBX 3 10 -1 -2
BITMAP
14
14
14
14
14
14
14
14
24
50
ENDCHAR
STARTCHAR jcircumflex
ENCODING 309
SWIDTH 252 0
DWIDTH 2 0
BBX 3 8 -1 -2
BITMAP
28
00
14
14
14
14
14
60
ENDCHAR
STARTCHAR Kcommaaccent
ENCODING 310
SWIDTH 613 0
DWIDTH 5 0
BBX 5 8 0 -2
BITMAP
1140
5200
6800
6800
5200
5180
0400
0400
ENDCHAR
STARTCHAR kcommaaccent
ENCODING 311
SWIDTH 524 0
DWIDTH 4 0
BBX 4 8 0 -2
BITMAP
50
51
55
64
58
52
04
10
ENDCHAR
STARTCHAR kgreenlandic
ENCODING 312
SWIDTH 518 0
DWIDTH 4 0
BBX 4 5 0 0
BITMAP
01
55
68
68
52
ENDCHAR
STARTCHAR Lacute
ENCODING 313
SWIDTH 519 0
DWIDTH 4 0
BBX 4 8 0 0
BITMAP
10
10
10
50
50
50
50
6A
ENDCHAR
STARTCHAR lacute
ENCODING 314
SWIDTH 252 0
DWIDTH 2 0
BBX 2 8 0 0
BITMAP
10
10
50
50
50
50
50
50
ENDCHAR
STARTCHAR Lcommaaccent
ENCODING 315
SWIDTH 519 0
DWIDTH 4 0
BBX 4 8 0 -2
BITMAP
10
50
50
50
50
6A
04
14
ENDCHAR
STARTCHAR lcommaaccent
ENCODING 316
SWIDTH 252 0
DWIDTH 2 0
BBX 2 8 0 -2
BITMAP
50
50
50
50
50
50
40
40
ENDCHAR
STARTCHAR Lcaron
ENCODING 317
SWIDTH 519 0
DWIDTH 4 0
BBX 4 6 0 0
BITMAP
11
54
50
50
50
6A
ENDCHAR
STARTCHAR lcaron
ENCODING 318
SWIDTH 252 0
DWIDTH 2 0
BBX 3 6 0 0
BITMAP
54
50
50
50
50
50
ENDCHAR
STARTCHAR Ldot
ENCODING 319
SWIDTH 519 0
DWIDTH 4 0
BBX 4 6 0 0
BITMAP
10
50
50
51
50
6A
ENDCHAR
STARTCHAR ldot
ENCODING 320
SWIDTH 313 0
DWIDTH 3 0
BBX 3 6 0 0
BITMAP
50
50
50
54
50
50
ENDCHAR
STARTCHAR Lslash
ENCODING 321
SWIDTH 522 0
DWIDTH 4 0
BBX 4 6 0 0
BITMAP
10
50
64
60
50
6A
ENDCHAR
STARTCHAR lslash
ENCODING 322
SWIDTH 261 0
DWIDTH 2 0
BBX 2 6 0 0
BITMAP
50
50
60
90
50
50
ENDCHAR
STARTCHAR Nacute
ENCODING 323
SWIDTH 753 0
DWIDTH 6 0
BBX 6 8 0 0
BITMAP
0100
0500
2050
6450
5850
5250
5190
5090
ENDCHAR
STARTCHAR nacute
ENCODING 324
SWIDTH 613 0
DWIDTH 5 0
BBX 5 6 0 0
BITMAP
0800
0500
6600
5140
5140
5140
ENDCHAR
STARTCHAR Ncommaaccent
ENCODING 325
SWIDTH 753 0
DWIDTH 6 0
BBX 6 8 0 -2
BITMAP
2050
6450
5850
5250
5190
5090
0400
0400
ENDCHAR
STARTCHAR ncommaaccent
ENCODING 326
SWIDTH 613 0
DWIDTH 5 0
BBX 5 7 0 -2
BITMAP
0500
6600
5140
5140
5140
0400
0400
ENDCHAR
STARTCHAR Ncaron
ENCODING 327
SWIDTH 753 0
DWIDTH 6 0
BBX 6 8 0 0
BITMAP
0500
0500
2050
6450
5850
5250
5190
5090
ENDCHAR
STARTCHAR ncaron
ENCODING 328
SWIDTH 613 0
DWIDTH 5 0
BBX 5 6 0 0
BITMAP
1900
0500
6600
5140
5140
5140
ENDCHAR
STARTCHAR napostrophe
ENCODING 329
SWIDTH 681 0
DWIDTH 5 0
BBX 5 6 0 0
BITMAP
4000
8100
2580
2080
2080
2080
ENDCHAR
STARTCHAR Eng
ENCODING 330
SWIDTH 753 0
DWIDTH 6 0
BBX 6 8 0 -2
BITMAP
2050
6450
5850
5250
5190
5090
0080
0140
ENDCHAR
STARTCHAR eng
ENCODING 331
SWIDTH 613 0
DWIDTH 5 0
BBX 5 7 0 -2
BITMAP
0500
6600
5140
5140
5140
0140
0600
ENDCHAR
STARTCHAR Omacron
ENCODING 332
SWIDTH 778 0
DWIDTH 6 0
BBX 6 7 0 0
BITMAP
0A00
1A40
2050
5020
5020
5050
2A80
ENDCHAR
STARTCHAR omacron
ENCODING 333
SWIDTH 604 0
DWIDTH 5 0
BBX 5 6 0 0
BITMAP
1500
1500
6600
5140
5140
2A00
ENDCHAR
STARTCHAR Obreve
ENCODING 334
SWIDTH 778 0
DWIDTH 6 0
BBX 6 7 0 0
BITMAP
0600
1A40
2050
5020
5020
5050
2A80
ENDCHAR
STARTCHAR obreve
ENCODING 335
SWIDTH 604 0
DWIDTH 5 0
BBX 5 6 0 0
BITMAP
1500
0400
6600
5140
5140
2A00
ENDCHAR
STARTCHAR Ohungarumlaut
ENCODING 336
SWIDTH 778 0
DWIDTH 6 0
BBX 6 8 0 0
BITMAP
0440
0500
1A40
2050
5020
5020
5050
2A80
ENDCHAR
STARTCHAR ohungarumlaut
ENCODING 337
SWIDTH 604 0
DWIDTH 5 0
BBX 5 6 0 0
BITMAP
1600
1400
6600
5140
5140
2A00
ENDCHAR
STARTCHAR OE
ENCODING 338
SWIDTH 922 0
DWIDTH 7 0
BBX 7 6 0 0
BITMAP
1AA8
2080
5094
5094
5080
2AE8
ENDCHAR
STARTCHAR oe
ENCODING 339
SWIDTH 941 0
DWIDTH 8 0
BBX 7 5 0 0
BITMAP
0410
6698
81A8
5140
2AA8
ENDCHAR
STARTCHAR Racute
ENCODING 340
SWIDTH 618 0
DWIDTH 5 0
BBX 5 8 0 0
BITMAP
0500
0400
2900
5140
5140
6A00
5200
5180
ENDCHAR
STARTCHAR racute
ENCODING 341
SWIDTH 408 0
DWIDTH 3 0
BBX 3 6 0 0
BITMAP
14
14
64
50
50
50
ENDCHAR
STARTCHAR Rcommaaccent
ENCODING 342
SWIDTH 618 0
DWIDTH 5 0
BBX 5 8 0 -2
BITMAP
2900
5140
5140
6A00
5200
5180
0400
0400
ENDCHAR
STARTCHAR rcommaaccent
ENCODING 343
SWIDTH 408 0
DWIDTH 3 0
BBX 3 7 0 -2
BITMAP
04
64
50
50
50
40
40
ENDCHAR
STARTCHAR Rcaron
ENCODING 344
SWIDTH 618 0
DWIDTH 5 0
BBX 5 8 0 0
BITMAP
1100
0800
2900
5140
5140
6A00
5200
5180
ENDCHAR
STARTCHAR rcaron
ENCODING 345
SWIDTH 408 0
DWIDTH 3 0
BBX 3 6 0 0
BITMAP
28
14
64
50
50
50
ENDCHAR
STARTCHAR Sacute
ENCODING 346
SWIDTH 548 0
DWIDTH 4 0
BBX 4 8 0 0
BITMAP
04
04
29
50
60
0A
02
6A
ENDCHAR
STARTCHAR sacute
ENCODING 347
SWIDTH 477 0
DWIDTH 4 0
BBX 4 6 0 0
BITMAP
18
14
54
64
05
59
ENDCHAR
STARTCHAR Scircumflex
ENCODING 348
SWIDTH 548 0
DWIDTH 4 0
BBX 4 8 0 0
BITMAP
04
15
29
50
60
0A
02
6A
ENDCHAR
STARTCHAR scircumflex
ENCODING 349
SWIDTH 477 0
DWIDTH 4 0
BBX 4 6 0 0
BITMAP
28
14
54
64
05
59
ENDCHAR
STARTCHAR Scedilla
ENCODING 350
SWIDTH 548 0
DWIDTH 4 0
BBX 4 8 0 -2
BITMAP
29
50
60
0A
02
6A
14
18
ENDCHAR
STARTCHAR scedilla
ENCODING 351
SWIDTH 477 0
DWIDTH 4 0
BBX 4 7 0 -2
BITMAP
14
54
64
05
59
10
14
ENDCHAR
STARTCHAR Scaron
ENCODING 352
SWIDTH 548 0
DWIDTH 4 0
BBX 4 8 0 0
BITMAP
11
18
29
50
60
0A
02
6A
ENDCHAR
STARTCHAR scaron
ENCODING 353
SWIDTH 477 0
DWIDTH 4 0
BBX 4 6 0 0
BITMAP
28
14
54
64
05
59
ENDCHAR
STARTCHAR Tcedilla
ENCODING 354
SWIDTH 553 0
DWIDTH 4 0
BBX 5 8 0 -2
BITMAP
AA40
0800
0800
0800
0800
0800
0400
1800
ENDCHAR
STARTCHAR tcedilla
ENCODING 355
SWIDTH 353 0
DWIDTH 3 0
BBX 3 7 0 -2
BITMAP
64
60
50
50
24
10
14
ENDCHAR
STARTCHAR Tcaron
ENCODING 356
SWIDTH 553 0
DWIDTH 4 0
BBX 5 8 0 0
BITMAP
1100
1800
AA40
0800
0800
0800
0800
0800
ENDCHAR
STARTCHAR tcaron
ENCODING 357
SWIDTH 353 0
DWIDTH 3 0
BBX 3 6 0 0
BITMAP
08
64
60
50
50
24
ENDCHAR
STARTCHAR Tbar
ENCODING 358
SWIDTH 553 0
DWIDTH 4 0
BBX 5 6 0 0
BITMAP
AA40
0800
1800
1900
0800
0800
ENDCHAR
STARTCHAR tbar
ENCODING 359
SWIDTH 353 0
DWIDTH 3 0
BBX 3 5 0 0
BITMAP
64
60
A4
50
24
ENDCHAR
STARTCHAR Utilde
ENCODING 360
SWIDTH 728 0
DWIDTH 6 0
BBX 5 7 0 0
BITMAP
1600
5040
5080
5080
5080
5080
2A40
ENDCHAR
STARTCHAR utilde
ENCODING 361
SWIDTH 613 0
DWIDTH 5 0
BBX 5 6 0 0
BITMAP
1900
0000
5140
5140
5140
2A40
ENDCHAR
STARTCHAR Umacron
ENCODING 362
SWIDTH 728 0
DWIDTH 6 0
BBX 5 7 0 0
BITMAP
0A00
5040
5080
5080
5080
5080
2A40
ENDCHAR
STARTCHAR umacron
ENCODING 363
SWIDTH 613 0
DWIDTH 5 0
BBX 5 6 0 0
BITMAP
1500
1100
5140
5140
5140
2A40
ENDCHAR
STARTCHAR Ubreve
ENCODING 364
SWIDTH 728 0
DWIDTH 6 0
BBX 5 7 0 0
BITMAP
0A00
5040
5080
5080
5080
5080
2A40
ENDCHAR
STARTCHAR ubreve
ENCODING 365
SWIDTH 613 0
DWIDTH 5 0
BBX 5 6 0 0
BITMAP
1500
0000
5140
5140
5140
2A40
ENDCHAR
STARTCHAR Uring
ENCODING 366
SWIDTH 728 0
DWIDTH 6 0
BBX 5 8 0 0
BITMAP
0500
0500
5040
5080
5080
5080
5080
2A40
ENDCHAR
STARTCHAR uring
ENCODING 367
SWIDTH 613 0
DWIDTH 5 0
BBX 5 7 0 0
BITMAP
0400
1500
0000
5140
5140
5140
2A40
ENDCHAR
STARTCHAR Uhungarumlaut
ENCODING 368
SWIDTH 728 0
DWIDTH 6 0
BBX 5 8 0 0
BITMAP
0440
0500
5040
5080
5080
5080
5080
2A40
ENDCHAR
STARTCHAR uhungarumlaut
ENCODING 369
SWIDTH 613 0
DWIDTH 5 0
BBX 5 6 0 0
BITMAP
1600
0000
5140
5140
5140
2A40
ENDCHAR
STARTCHAR Uogonek
ENCODING 370
SWIDTH 728 0
DWIDTH 6 0
BBX 5 8 0 -2
BITMAP
5040
5080
5080
5080
5080
2A40
0400
0500
ENDCHAR
STARTCHAR uogonek
ENCODING 371
SWIDTH 613 0
DWIDTH 5 0
BBX 5 6 0 -2
BITMAP
5140
5140
5140
2A40
0100
0140
ENDCHAR
STARTCHAR Wcircumflex
ENCODING 372
SWIDTH 925 0
DWIDTH 7 0
BBX 7 8 0 0
BITMAP
0100
0540
8204
8248
5588
2894
2860
2430
ENDCHAR
STARTCHAR wcircumflex
ENCODING 373
SWIDTH 777 0
DWIDTH 6 0
BBX 6 6 0 0
BITMAP
0A00
4000
8620
5A20
2590
34C0
ENDCHAR
STARTCHAR Ycircumflex
ENCODING 374
SWIDTH 560 0
DWIDTH 4 0
BBX 5 8 0 0
BITMAP
0400
1500
8140
5200
2500
1800
0800
0800
ENDCHAR
STARTCHAR ycircumflex
ENCODING 375
SWIDTH 503 0
DWIDTH 4 0
BBX 4 8 0 -2
BITMAP
28
41
82
55
28
18
14
A0
ENDCHAR
STARTCHAR Ydieresis
ENCODING 376
SWIDTH 560 0
DWIDTH 4 0
BBX 5 7 0 0
BITMAP
1400
8140
5200
2500
1800
0800
0800
ENDCHAR
STARTCHAR Zacute
ENCODING 377
SWIDTH 570 0
DWIDTH 5 0
BBX 4 8 0 0
BITMAP
04
04
6A
02
08
14
20
AA
ENDCHAR
STARTCHAR zacute
ENCODING 378
SWIDTH 467 0
DWIDTH 4 0
BBX 4 6 0 0
BITMAP
18
14
19
14
20
A9
ENDCHAR
STARTCHAR Zdotaccent
ENCODING 379
SWIDTH 570 0
DWIDTH 5 0
BBX 4 7 0 0
BITMAP
04
6A
02
08
14
20
AA
ENDCHAR
STARTCHAR zdotaccent
ENCODING 380
SWIDTH 467 0
DWIDTH 4 0
BBX 4 6 0 0
BITMAP
10
14
19
14
20
A9
ENDCHAR
STARTCHAR Zcaron
ENCODING 381
SWIDTH 570 0
DWIDTH 5 0
BBX 4 8 0 0
BITMAP
11
18
6A
02
08
14
20
AA
ENDCHAR
STARTCHAR zcaron
ENCODING 382
SWIDTH 467 0
DWIDTH 4 0
BBX 4 6 0 0
BITMAP
28
14
19
14
20
A9
ENDCHAR
STARTCHAR longs
ENCODING 383
SWIDTH 319 0
DWIDTH 3 0
BBX 3 6 0 0
BITMAP
24
50
50
50
50
50
ENDCHAR
STARTCHAR florin
ENCODING 402
SWIDTH 577 0
DWIDTH 5 0
BBX 3 8 1 -2
BITMAP
18
20
64
20
20
20
20
90
ENDCHAR
STARTCHAR Ohorn
ENCODING 416
SWIDTH 779 0
DWIDTH 6 0
BBX 7 6 0 0
BITMAP
1A54
2060
5020
5020
5050
2A80
ENDCHAR
STARTCHAR ohorn
ENCODING 417
SWIDTH 608 0
DWIDTH 5 0
BBX 5 5 0 0
BITMAP
0480
6640
4140
5140
2A00
ENDCHAR
STARTCHAR Uhorn
ENCODING 431
SWIDTH 768 0
DWIDTH 6 0
BBX 7 6 0 0
BITMAP
5054
5090
5080
5080
5080
2A40
ENDCHAR
STARTCHAR uhorn
ENCODING 432
SWIDTH 665 0
DWIDTH 5 0
BBX 6 5 0 0
BITMAP
0050
5180
5140
5140
2A40
ENDCHAR
STARTCHAR uni01F0
ENCODING 496
SWIDTH 252 0
DWIDTH 2 0
BBX 3 8 -1 -2
BITMAP
28
00
14
14
14
14
14
60
ENDCHAR
STARTCHAR Aringacute
ENCODING 506
SWIDTH 634 0
DWIDTH 5 0
BBX 5 8 0 0
BITMAP
0500
0800
1500
0C00
1600
2600
6640
8080
ENDCHAR
STARTCHAR aringacute
ENCODING 507
SWIDTH 556 0
DWIDTH 4 0
BBX 4 8 0 0
BITMAP
04
14
18
14
16
16
92
6A
ENDCHAR
STARTCHAR AEacute
ENCODING 508
SWIDTH 873 0
DWIDTH 7 0
BBX 7 8 0 0
BITMAP
0040
0040
06A4
0940
1550
2650
5640
81A4
ENDCHAR
STARTCHAR aeacute
ENCODING 509
SWIDTH 857 0
DWIDTH 7 0
BBX 7 6 0 0
BITMAP
0240
1440
1664
17A4
9200
69A0
ENDCHAR
STARTCHAR Oslashacute
ENCODING 510
SWIDTH 778 0
DWIDTH 6 0
BBX 6 8 0 0
BITMAP
0100
0100
1A90
2090
5220
5520
6450
2A80
ENDCHAR
STARTCHAR oslashacute
ENCODING 511
SWIDTH 604 0
DWIDTH 5 0
BBX 5 6 0 0
BITMAP
0800
0500
6700
5940
6540
7A00
ENDCHAR
STARTCHAR Scommaaccent
ENCODING 536
SWIDTH 548 0
DWIDTH 4 0
BBX 4 8 0 -2
BITMAP
29
50
60
0A
02
6A
14
10
ENDCHAR
STARTCHAR scommaaccent
ENCODING 537
SWIDTH 477 0
DWIDTH 4 0
BBX 4 7 0 -2
BITMAP
14
54
64
05
59
10
10
ENDCHAR
STARTCHAR Tcommaaccent
ENCODING 538
SWIDTH 553 0
DWIDTH 4 0
BBX 5 8 0 -2
BITMAP
AA40
0800
0800
0800
0800
0800
0400
1000
ENDCHAR
STARTCHAR tcommaaccent
ENCODING 539
SWIDTH 353 0
DWIDTH 3 0
BBX 3 7 0 -2
BITMAP
64
60
50
50
24
10
10
ENDCHAR
STARTCHAR dotlessj
ENCODING 567
SWIDTH 252 0
DWIDTH 2 0
BBX 3 6 -1 -2
BITMAP
14
14
14
14
14
60
ENDCHAR
STARTCHAR uni02BC
ENCODING 700
SWIDTH 169 0
DWIDTH 1 0
BBX 1 2 0 4
BITMAP
40
80
ENDCHAR
STARTCHAR circumflex
ENCODING 710
SWIDTH 591 0
DWIDTH 5 0
BBX 3 1 1 5
BITMAP
64
ENDCHAR
STARTCHAR caron
ENCODING 711
SWIDTH 591 0
DWIDTH 5 0
BBX 3 1 1 5
BITMAP
64
ENDCHAR
STARTCHAR macron
ENCODING 713
SWIDTH 586 0
DWIDTH 5 0
BBX 3 1 1 5
BITMAP
54
ENDCHAR
STARTCHAR breve
ENCODING 728
SWIDTH 591 0
DWIDTH 5 0
BBX 3 1 1 5
BITMAP
54
ENDCHAR
STARTCHAR dotaccent
ENCODING 729
SWIDTH 252 0
DWIDTH 2 0
BBX 2 1 0 5
BITMAP
50
ENDCHAR
STARTCHAR ring
ENCODING 730
SWIDTH 577 0
DWIDTH 5 0
BBX 2 2 1 5
BITMAP
10
50
ENDCHAR
STARTCHAR ogonek
ENCODING 731
SWIDTH 196 0
DWIDTH 2 0
BBX 2 2 0 -2
BITMAP
40
50
ENDCHAR
STARTCHAR tilde
ENCODING 732
SWIDTH 591 0
DWIDTH 5 0
BBX 3 1 1 5
BITMAP
64
ENDCHAR
STARTCHAR hungarumlaut
ENCODING 733
SWIDTH 577 0
DWIDTH 5 0
BBX 3 1 1 5
BITMAP
94
ENDCHAR
STARTCHAR uni02F3
ENCODING 755
SWIDTH 333 0
DWIDTH 3 0
BBX 2 2 0 -2
BITMAP
10
50
ENDCHAR
STARTCHAR uni0300
ENCODING 768
SWIDTH 0 0
DWIDTH 0 0
BBX 2 1 -4 5
BITMAP
50
ENDCHAR
STARTCHAR uni0301
ENCODING 769
SWIDTH 0 0
DWIDTH 0 0
BBX 2 1 -3 5
BITMAP
90
ENDCHAR
STARTCHAR uni0303
ENCODING 771
SWIDTH 0 0
DWIDTH 0 0
BBX 3 1 -4 5
BITMAP
64
ENDCHAR
STARTCHAR hook
ENCODING 777
SWIDTH 0 0
DWIDTH 0 0
BBX 2 2 -3 5
BITMAP
40
50
ENDCHAR
STARTCHAR uni030F
ENCODING 783
SWIDTH 0 0
DWIDTH 0 0
BBX 3 1 -4 5
BITMAP
94
ENDCHAR
STARTCHAR dotbelow
ENCODING 803
SWIDTH 0 0
DWIDTH 0 0
BBX 1 2 -3 -2
BITMAP
40
40
ENDCHAR
STARTCHAR tonos
ENCODING 900
SWIDTH 577 0
DWIDTH 5 0
BBX 1 2 2 5
BITMAP
40
80
ENDCHAR
STARTCHAR dieresistonos
ENCODING 901
SWIDTH 577 0
DWIDTH 5 0
BBX 3 2 1 5
BITMAP
10
54
ENDCHAR
STARTCHAR Alphatonos
ENCODING 902
SWIDTH 632 0
DWIDTH 5 0
BBX 5 6 0 0
BITMAP
8800
5900
2200
2600
5540
8080
ENDCHAR
STARTCHAR anoteleia
ENCODING 903
SWIDTH 266 0
DWIDTH 2 0
BBX 2 1 0 2
BITMAP
50
ENDCHAR
STARTCHAR Epsilontonos
ENCODING 904
SWIDTH 618 0
DWIDTH 5 0
BBX 5 6 0 0
BITMAP
AA40
6000
2500
2500
2000
2A40
ENDCHAR
STARTCHAR Etatonos
ENCODING 905
SWIDTH 811 0
DWIDTH 6 0
BBX 6 6 0 0
BITMAP
9010
6020
2560
2560
2020
2020
ENDCHAR
STARTCHAR Iotatonos
ENCODING 906
SWIDTH 361 0
DWIDTH 3 0
BBX 2 6 0 0
BITMAP
90
60
20
20
20
20
ENDCHAR
STARTCHAR Omicrontonos
ENCODING 908
SWIDTH 812 0
DWIDTH 7 0
BBX 6 6 0 0
BITMAP
8A80
6060
2020
5020
2020
1A80
ENDCHAR
STARTCHAR Upsilontonos
ENCODING 910
SWIDTH 689 0
DWIDTH 6 0
BBX 6 6 0 0
BITMAP
9050
5480
0940
0600
0200
0200
ENDCHAR
STARTCHAR Omegatonos
ENCODING 911
SWIDTH 812 0
DWIDTH 7 0
BBX 6 6 0 0
BITMAP
8A80
6020
6020
2020
2060
68E0
ENDCHAR
STARTCHAR iotadieresistonos
ENCODING 912
SWIDTH 338 0
DWIDTH 3 0
BBX 3 7 0 0
BITMAP
10
50
00
50
50
50
64
ENDCHAR
STARTCHAR Alpha
ENCODING 913
SWIDTH 632 0
DWIDTH 5 0
BBX 5 6 0 0
BITMAP
0800
1900
2200
2600
5540
8080
ENDCHAR
STARTCHAR Beta
ENCODING 914
SWIDTH 647 0
DWIDTH 5 0
BBX 5 6 0 0
BITMAP
2A00
5140
6640
6540
5080
6A40
ENDCHAR
STARTCHAR Gamma
ENCODING 915
SWIDTH 520 0
DWIDTH 4 0
BBX 4 6 0 0
BITMAP
2A
50
50
50
50
50
ENDCHAR
STARTCHAR uni0394
ENCODING 916
SWIDTH 571 0
DWIDTH 5 0
BBX 5 6 0 0
BITMAP
0800
1800
2500
2200
5200
AA40
ENDCHAR
STARTCHAR Epsilon
ENCODING 917
SWIDTH 556 0
DWIDTH 4 0
BBX 4 6 0 0
BITMAP
2A
50
65
65
50
6A
ENDCHAR
STARTCHAR Zeta
ENCODING 918
SWIDTH 570 0
DWIDTH 5 0
BBX 4 6 0 0
BITMAP
6A
02
08
14
20
AA
ENDCHAR
STARTCHAR Eta
ENCODING 919
SWIDTH 737 0
DWIDTH 6 0
BBX 5 6 0 0
BITMAP
1040
5080
6580
6580
5080
5080
ENDCHAR
STARTCHAR Theta
ENCODING 920
SWIDTH 778 0
DWIDTH 6 0
BBX 6 6 0 0
BITMAP
1A40
2050
5520
5520
5050
2A80
ENDCHAR
STARTCHAR Iota
ENCODING 921
SWIDTH 278 0
DWIDTH 2 0
BBX 2 6 0 0
BITMAP
10
50
50
50
50
50
ENDCHAR
STARTCHAR Kappa
ENCODING 922
SWIDTH 613 0
DWIDTH 5 0
BBX 5 6 0 0
BITMAP
1140
5200
6800
6800
5200
5180
ENDCHAR
STARTCHAR Lambda
ENCODING 923
SWIDTH 603 0
DWIDTH 5 0
BBX 5 6 0 0
BITMAP
0800
1900
2200
2200
5140
8080
ENDCHAR
STARTCHAR Mu
ENCODING 924
SWIDTH 902 0
DWIDTH 7 0
BBX 7 6 0 0
BITMAP
2014
6424
5854
5894
5654
5314
ENDCHAR
STARTCHAR Nu
ENCODING 925
SWIDTH 753 0
DWIDTH 6 0
BBX 6 6 0 0
BITMAP
2050
6450
5850
5250
5190
5090
ENDCHAR
STARTCHAR Xi
ENCODING 926
SWIDTH 553 0
DWIDTH 4 0
BBX 4 6 0 0
BITMAP
6A
00
15
15
00
6A
ENDCHAR
STARTCHAR Omicron
ENCODING 927
SWIDTH 778 0
DWIDTH 6 0
BBX 6 6 0 0
BITMAP
1A40
2050
5020
5020
5050
2A80
ENDCHAR
STARTCHAR Pi
ENCODING 928
SWIDTH 729 0
DWIDTH 6 0
BBX 5 6 0 0
BITMAP
2A80
5080
5080
5080
5080
5080
ENDCHAR
STARTCHAR Rho
ENCODING 929
SWIDTH 602 0
DWIDTH 5 0
BBX 5 6 0 0
BITMAP
2900
5140
5140
6900
5000
5000
ENDCHAR
STARTCHAR Sigma
ENCODING 931
SWIDTH 566 0
DWIDTH 5 0
BBX 5 6 0 0
BITMAP
6A00
2000
1400
1400
2000
AA40
ENDCHAR
STARTCHAR Tau
ENCODING 932
SWIDTH 553 0
DWIDTH 4 0
BBX 5 6 0 0
BITMAP
AA40
0800
0800
0800
0800
0800
ENDCHAR
STARTCHAR Upsilon
ENCODING 933
SWIDTH 560 0
DWIDTH 4 0
BBX 5 6 0 0
BITMAP
8140
5200
2500
1800
0800
0800
ENDCHAR
STARTCHAR Phi
ENCODING 934
SWIDTH 797 0
DWIDTH 6 0
BBX 6 6 0 0
BITMAP
0500
2A90
5220
9220
2690
0600
ENDCHAR
STARTCHAR Chi
ENCODING 935
SWIDTH 577 0
DWIDTH 5 0
BBX 5 6 0 0
BITMAP
4100
2200
1800
1800
2200
8140
ENDCHAR
STARTCHAR Psi
ENCODING 936
SWIDTH 795 0
DWIDTH 6 0
BBX 6 6 0 0
BITMAP
4110
8220
9220
2690
0600
0200
ENDCHAR
STARTCHAR uni03A9
ENCODING 937
SWIDTH 782 0
DWIDTH 6 0
BBX 6 6 0 0
BITMAP
1A40
6050
5020
5020
2050
65E0
ENDCHAR
STARTCHAR Iotadieresis
ENCODING 938
SWIDTH 278 0
DWIDTH 2 0
BBX 2 7 0 0
BITMAP
50
10
50
50
50
50
50
ENDCHAR
STARTCHAR Upsilondieresis
ENCODING 939
SWIDTH 560 0
DWIDTH 4 0
BBX 5 7 0 0
BITMAP
1400
8140
5200
2500
1800
0800
0800
ENDCHAR
STARTCHAR alphatonos
ENCODING 940
SWIDTH 610 0
DWIDTH 5 0
BBX 5 7 0 0
BITMAP
0400
0800
0400
6640
8140
5240
2A80
ENDCHAR
STARTCHAR epsilontonos
ENCODING 941
SWIDTH 475 0
DWIDTH 4 0
BBX 4 7 0 0
BITMAP
04
04
14
55
64
90
69
ENDCHAR
STARTCHAR etatonos
ENCODING 942
SWIDTH 613 0
DWIDTH 5 0
BBX 5 9 0 -2
BITMAP
0400
0800
0500
6600
5140
5140
5140
0140
0140
ENDCHAR
STARTCHAR iotatonos
ENCODING 943
SWIDTH 338 0
DWIDTH 3 0
BBX 3 7 0 0
BITMAP
10
10
00
50
50
50
64
ENDCHAR
STARTCHAR upsilondieresistonos
ENCODING 944
SWIDTH 608 0
DWIDTH 5 0
BBX 5 7 0 0
BITMAP
0400
1500
0000
5140
5140
5140
2600
ENDCHAR
STARTCHAR alpha
ENCODING 945
SWIDTH 610 0
DWIDTH 5 0
BBX 5 5 0 0
BITMAP
0400
6640
8140
5240
2A80
ENDCHAR
STARTCHAR beta
ENCODING 946
SWIDTH 627 0
DWIDTH 5 0
BBX 5 8 0 -2
BITMAP
2600
5140
5600
5140
5080
6640
5000
5000
ENDCHAR
STARTCHAR gamma
ENCODING 947
SWIDTH 512 0
DWIDTH 4 0
BBX 4 7 0 -2
BITMAP
41
82
55
28
18
14
20
ENDCHAR
STARTCHAR delta
ENCODING 948
SWIDTH 580 0
DWIDTH 5 0
BBX 5 6 0 0
BITMAP
2A00
2000
1900
5240
9140
2A00
ENDCHAR
STARTCHAR epsilon
ENCODING 949
SWIDTH 475 0
DWIDTH 4 0
BBX 4 5 0 0
BITMAP
14
55
64
90
69
ENDCHAR
STARTCHAR zeta
ENCODING 950
SWIDTH 482 0
DWIDTH 4 0
BBX 4 8 0 -2
BITMAP
19
14
20
50
90
28
06
04
ENDCHAR
STARTCHAR eta
ENCODING 951
SWIDTH 613 0
DWIDTH 5 0
BBX 5 7 0 -2
BITMAP
0500
6600
5140
5140
5140
0140
0140
ENDCHAR
STARTCHAR theta
ENCODING 952
SWIDTH 591 0
DWIDTH 5 0
BBX 5 6 0 0
BITMAP
2600
5200
9640
9140
5200
2A00
ENDCHAR
STARTCHAR iota
ENCODING 953
SWIDTH 338 0
DWIDTH 3 0
BBX 3 4 0 0
BITMAP
50
50
50
64
ENDCHAR
STARTCHAR kappa
ENCODING 954
SWIDTH 518 0
DWIDTH 4 0
BBX 4 5 0 0
BITMAP
01
55
68
68
52
ENDCHAR
STARTCHAR lambda
ENCODING 955
SWIDTH 534 0
DWIDTH 4 0
BBX 4 6 0 0
BITMAP
60
14
28
28
55
82
ENDCHAR
STARTCHAR uni03BC
ENCODING 956
SWIDTH 619 0
DWIDTH 5 0
BBX 5 6 0 -2
BITMAP
5140
5140
5140
6640
5000
5000
ENDCHAR
STARTCHAR nu
ENCODING 957
SWIDTH 541 0
DWIDTH 4 0
BBX 4 5 0 0
BITMAP
41
82
52
25
28
ENDCHAR
STARTCHAR xi
ENCODING 958
SWIDTH 475 0
DWIDTH 4 0
BBX 4 8 0 -2
BITMAP
29
50
24
60
90
28
02
01
ENDCHAR
STARTCHAR omicron
ENCODING 959
SWIDTH 604 0
DWIDTH 5 0
BBX 5 5 0 0
BITMAP
0400
6600
5140
5140
2A00
ENDCHAR
STARTCHAR pi
ENCODING 960
SWIDTH 649 0
DWIDTH 5 0
BBX 5 5 0 0
BITMAP
5540
6640
2200
2200
2140
ENDCHAR
STARTCHAR rho
ENCODING 961
SWIDTH 604 0
DWIDTH 5 0
BBX 5 7 0 -2
BITMAP
0400
2600
5140
5140
6A00
5000
5000
ENDCHAR
STARTCHAR sigma1
ENCODING 962
SWIDTH 481 0
DWIDTH 4 0
BBX 4 7 0 -2
BITMAP
04
25
50
50
28
02
01
ENDCHAR
STARTCHAR sigma
ENCODING 963
SWIDTH 612 0
DWIDTH 5 0
BBX 5 5 0 0
BITMAP
0540
2640
5140
5140
2A00
ENDCHAR
STARTCHAR tau
ENCODING 964
SWIDTH 473 0
DWIDTH 4 0
BBX 4 5 0 0
BITMAP
54
64
20
20
29
ENDCHAR
STARTCHAR upsilon
ENCODING 965
SWIDTH 608 0
DWIDTH 5 0
BBX 5 4 0 0
BITMAP
5140
5140
5140
2600
ENDCHAR
STARTCHAR phi
ENCODING 966
SWIDTH 717 0
DWIDTH 6 0
BBX 6 7 0 -2
BITMAP
0100
6580
5450
5490
2A40
0400
0400
ENDCHAR
STARTCHAR chi
ENCODING 967
SWIDTH 545 0
DWIDTH 4 0
BBX 4 7 0 -2
BITMAP
41
62
28
18
28
58
82
ENDCHAR
STARTCHAR psi
ENCODING 968
SWIDTH 752 0
DWIDTH 6 0
BBX 6 8 0 -2
BITMAP
0500
0500
5550
5510
5550
2A80
0500
0500
ENDCHAR
STARTCHAR omega
ENCODING 969
SWIDTH 772 0
DWIDTH 6 0
BBX 6 4 0 0
BITMAP
5020
8120
5520
2A90
ENDCHAR
STARTCHAR iotadieresis
ENCODING 970
SWIDTH 338 0
DWIDTH 3 0
BBX 3 6 0 0
BITMAP
50
00
50
50
50
64
ENDCHAR
STARTCHAR upsilondieresis
ENCODING 971
SWIDTH 608 0
DWIDTH 5 0
BBX 5 6 0 0
BITMAP
1100
0000
5140
5140
5140
2600
ENDCHAR
STARTCHAR omicrontonos
ENCODING 972
SWIDTH 604 0
DWIDTH 5 0
BBX 5 7 0 0
BITMAP
0400
0800
0400
6600
5140
5140
2A00
ENDCHAR
STARTCHAR upsilontonos
ENCODING 973
SWIDTH 608 0
DWIDTH 5 0
BBX 5 7 0 0
BITMAP
0400
0800
0000
5140
5140
5140
2600
ENDCHAR
STARTCHAR omegatonos
ENCODING 974
SWIDTH 772 0
DWIDTH 6 0
BBX 6 7 0 0
BITMAP
0100
0100
0000
5020
8120
5520
2A90
ENDCHAR
STARTCHAR uni03D1
ENCODING 977
SWIDTH 622 0
DWIDTH 5 0
BBX 5 6 0 0
BITMAP
2600
2200
5A80
5140
5200
2900
ENDCHAR
STARTCHAR uni03D2
ENCODING 978
SWIDTH 564 0
DWIDTH 5 0
BBX 5 6 0 0
BITMAP
8140
5200
2400
1800
0800
0800
ENDCHAR
STARTCHAR uni03D6
ENCODING 982
SWIDTH 839 0
DWIDTH 7 0
BBX 6 5 0 0
BITMAP
5550
6560
5020
5220
2AA0
ENDCHAR
STARTCHAR uni0400
ENCODING 1024
SWIDTH 556 0
DWIDTH 4 0
BBX 4 8 0 0
BITMAP
10
04
2A
50
65
65
50
6A
ENDCHAR
STARTCHAR afii10023
ENCODING 1025
SWIDTH 556 0
DWIDTH 4 0
BBX 4 7 0 0
BITMAP
11
2A
50
65
65
50
6A
ENDCHAR
STARTCHAR afii10051
ENCODING 1026
SWIDTH 733 0
DWIDTH 6 0
BBX 6 6 0 0
BITMAP
A900
2000
2940
2080
2050
2180
ENDCHAR
STARTCHAR afii10052
ENCODING 1027
SWIDTH 520 0
DWIDTH 4 0
BBX 4 8 0 0
BITMAP
04
04
2A
50
50
50
50
50
ENDCHAR
STARTCHAR afii10053
ENCODING 1028
SWIDTH 639 0
DWIDTH 5 0
BBX 5 6 0 0
BITMAP
1A40
2000
5500
5500
6000
2A40
ENDCHAR
STARTCHAR afii10054
ENCODING 1029
SWIDTH 548 0
DWIDTH 4 0
BBX 4 6 0 0
BITMAP
29
50
60
0A
02
6A
ENDCHAR
STARTCHAR afii10055
ENCODING 1030
SWIDTH 278 0
DWIDTH 2 0
BBX 2 6 0 0
BITMAP
10
50
50
50
50
50
ENDCHAR
STARTCHAR afii10056
ENCODING 1031
SWIDTH 278 0
DWIDTH 2 0
BBX 2 7 0 0
BITMAP
50
10
50
50
50
50
50
ENDCHAR
STARTCHAR afii10057
ENCODING 1032
SWIDTH 267 0
DWIDTH 2 0
BBX 3 8 -1 -2
BITMAP
14
14
14
14
14
14
24
50
ENDCHAR
STARTCHAR afii10058
ENCODING 1033
SWIDTH 929 0
DWIDTH 7 0
BBX 7 6 0 0
BITMAP
1A40
1540
2190
2198
2148
91A8
ENDCHAR
STARTCHAR afii10059
ENCODING 1034
SWIDTH 953 0
DWIDTH 8 0
BBX 8 6 0 0
BITMAP
1040
5080
6590
6598
5085
50E8
ENDCHAR
STARTCHAR afii10060
ENCODING 1035
SWIDTH 733 0
DWIDTH 6 0
BBX 6 6 0 0
BITMAP
AA00
2000
2940
2080
2050
2050
ENDCHAR
STARTCHAR afii10061
ENCODING 1036
SWIDTH 611 0
DWIDTH 5 0
BBX 5 8 0 0
BITMAP
0100
0400
1140
5600
6800
6800
5600
5140
ENDCHAR
STARTCHAR uni040D
ENCODING 1037
SWIDTH 762 0
DWIDTH 6 0
BBX 6 8 0 0
BITMAP
0400
0500
1050
5190
5250
5950
6850
6050
ENDCHAR
STARTCHAR afii10062
ENCODING 1038
SWIDTH 621 0
DWIDTH 5 0
BBX 5 8 0 0
BITMAP
1100
1900
4040
5140
2200
1A00
0800
6400
ENDCHAR
STARTCHAR afii10145
ENCODING 1039
SWIDTH 729 0
DWIDTH 6 0
BBX 5 8 0 -2
BITMAP
1040
5080
5080
5080
5080
6AC0
0500
0400
ENDCHAR
STARTCHAR afii10017
ENCODING 1040
SWIDTH 632 0
DWIDTH 5 0
BBX 5 6 0 0
BITMAP
0800
1900
2200
2600
5540
8080
ENDCHAR
STARTCHAR afii10018
ENCODING 1041
SWIDTH 612 0
DWIDTH 5 0
BBX 5 6 0 0
BITMAP
2A00
5000
6400
6640
5140
6A00
ENDCHAR
STARTCHAR afii10019
ENCODING 1042
SWIDTH 647 0
DWIDTH 5 0
BBX 5 6 0 0
BITMAP
2A00
5140
6640
6540
5080
6A40
ENDCHAR
STARTCHAR afii10020
ENCODING 1043
SWIDTH 520 0
DWIDTH 4 0
BBX 4 6 0 0
BITMAP
2A
50
50
50
50
50
ENDCHAR
STARTCHAR afii10021
ENCODING 1044
SWIDTH 683 0
DWIDTH 5 0
BBX 6 8 0 -2
BITMAP
0A40
0880
1480
2080
2080
AA90
8050
4000
ENDCHAR
STARTCHAR afii10022
ENCODING 1045
SWIDTH 556 0
DWIDTH 4 0
BBX 4 6 0 0
BITMAP
2A
50
65
65
50
6A
ENDCHAR
STARTCHAR afii10024
ENCODING 1046
SWIDTH 844 0
DWIDTH 7 0
BBX 7 6 0 0
BITMAP
4114
2220
0A80
0A80
2260
9214
ENDCHAR
STARTCHAR afii10025
ENCODING 1047
SWIDTH 581 0
DWIDTH 5 0
BBX 4 6 0 0
BITMAP
69
02
16
16
02
6A
ENDCHAR
STARTCHAR afii10026
ENCODING 1048
SWIDTH 762 0
DWIDTH 6 0
BBX 6 6 0 0
BITMAP
1050
5190
5250
5950
6850
6050
ENDCHAR
STARTCHAR afii10027
ENCODING 1049
SWIDTH 762 0
DWIDTH 6 0
BBX 6 8 0 0
BITMAP
0040
0A40
1050
5190
5250
5950
6850
6050
ENDCHAR
STARTCHAR afii10028
ENCODING 1050
SWIDTH 611 0
DWIDTH 5 0
BBX 5 6 0 0
BITMAP
1140
5600
6800
6800
5600
5140
ENDCHAR
STARTCHAR afii10029
ENCODING 1051
SWIDTH 704 0
DWIDTH 6 0
BBX 5 6 0 0
BITMAP
1A80
1480
2080
2080
2080
9080
ENDCHAR
STARTCHAR afii10030
ENCODING 1052
SWIDTH 902 0
DWIDTH 7 0
BBX 7 6 0 0
BITMAP
2014
6424
5854
5894
5654
5314
ENDCHAR
STARTCHAR afii10031
ENCODING 1053
SWIDTH 737 0
DWIDTH 6 0
BBX 5 6 0 0
BITMAP
1040
5080
6580
6580
5080
5080
ENDCHAR
STARTCHAR afii10032
ENCODING 1054
SWIDTH 778 0
DWIDTH 6 0
BBX 6 6 0 0
BITMAP
1A40
2050
5020
5020
5050
2A80
ENDCHAR
STARTCHAR afii10033
ENCODING 1055
SWIDTH 729 0
DWIDTH 6 0
BBX 5 6 0 0
BITMAP
2A80
5080
5080
5080
5080
5080
ENDCHAR
STARTCHAR afii10034
ENCODING 1056
SWIDTH 602 0
DWIDTH 5 0
BBX 5 6 0 0
BITMAP
2900
5140
5140
6900
5000
5000
ENDCHAR
STARTCHAR afii10035
ENCODING 1057
SWIDTH 630 0
DWIDTH 5 0
BBX 5 6 0 0
BITMAP
1A40
2000
5000
5000
6000
2A40
ENDCHAR
STARTCHAR afii10036
ENCODING 1058
SWIDTH 553 0
DWIDTH 4 0
BBX 5 6 0 0
BITMAP
AA40
0800
0800
0800
0800
0800
ENDCHAR
STARTCHAR afii10037
ENCODING 1059
SWIDTH 621 0
DWIDTH 5 0
BBX 5 6 0 0
BITMAP
4040
5140
2200
1A00
0800
6400
ENDCHAR
STARTCHAR afii10038
ENCODING 1060
SWIDTH 797 0
DWIDTH 6 0
BBX 6 6 0 0
BITMAP
0500
2A90
5220
9220
2690
0600
ENDCHAR
STARTCHAR afii10039
ENCODING 1061
SWIDTH 577 0
DWIDTH 5 0
BBX 5 6 0 0
BITMAP
4100
2200
1800
1800
2200
8140
ENDCHAR
STARTCHAR afii10040
ENCODING 1062
SWIDTH 736 0
DWIDTH 6 0
BBX 6 8 0 -2
BITMAP
1040
5080
5080
5080
5080
6AD0
0020
0010
ENDCHAR
STARTCHAR afii10041
ENCODING 1063
SWIDTH 694 0
DWIDTH 6 0
BBX 5 6 0 0
BITMAP
5040
5080
5080
2A80
0080
0080
ENDCHAR
STARTCHAR afii10042
ENCODING 1064
SWIDTH 1032 0
DWIDTH 8 0
BBX 8 6 0 0
BITMAP
1041
5145
5145
5145
5145
6AA9
ENDCHAR
STARTCHAR afii10043
ENCODING 1065
SWIDTH 1033 0
DWIDTH 8 0
BBX 8 8 0 -2
BITMAP
1145
5145
5145
5145
5145
6AAA
0002
0001
ENDCHAR
STARTCHAR afii10044
ENCODING 1066
SWIDTH 687 0
DWIDTH 6 0
BBX 5 6 0 0
BITMAP
A000
2000
2500
2580
2080
2A80
ENDCHAR
STARTCHAR afii10045
ENCODING 1067
SWIDTH 853 0
DWIDTH 7 0
BBX 6 6 0 0
BITMAP
1010
5020
6420
6660
5160
6A20
ENDCHAR
STARTCHAR afii10046
ENCODING 1068
SWIDTH 643 0
DWIDTH 5 0
BBX 5 6 0 0
BITMAP
1000
5000
6400
6640
5080
6A40
ENDCHAR
STARTCHAR afii10047
ENCODING 1069
SWIDTH 629 0
DWIDTH 5 0
BBX 5 6 0 0
BITMAP
6900
0240
1540
1540
0240
6900
ENDCHAR
STARTCHAR afii10048
ENCODING 1070
SWIDTH 1049 0
DWIDTH 8 0
BBX 8 6 0 0
BITMAP
10A4
5206
6602
6602
5202
51A8
ENDCHAR
STARTCHAR afii10049
ENCODING 1071
SWIDTH 636 0
DWIDTH 5 0
BBX 5 6 0 0
BITMAP
1A40
5140
6140
2A40
2140
5140
ENDCHAR
STARTCHAR afii10065
ENCODING 1072
SWIDTH 556 0
DWIDTH 4 0
BBX 4 5 0 0
BITMAP
14
16
16
92
6A
ENDCHAR
STARTCHAR afii10066
ENCODING 1073
SWIDTH 596 0
DWIDTH 5 0
BBX 5 6 0 0
BITMAP
1A00
6000
6A00
9140
5140
2A00
ENDCHAR
STARTCHAR afii10067
ENCODING 1074
SWIDTH 568 0
DWIDTH 5 0
BBX 5 5 0 0
BITMAP
1400
6600
6A00
5240
6A00
ENDCHAR
STARTCHAR afii10068
ENCODING 1075
SWIDTH 428 0
DWIDTH 3 0
BBX 3 5 0 0
BITMAP
14
64
50
50
50
ENDCHAR
STARTCHAR afii10069
ENCODING 1076
SWIDTH 571 0
DWIDTH 5 0
BBX 5 7 0 -2
BITMAP
0500
1600
2200
2200
AB40
8140
4040
ENDCHAR
STARTCHAR afii10070
ENCODING 1077
SWIDTH 561 0
DWIDTH 4 0
BBX 4 5 0 0
BITMAP
04
66
6A
50
2A
ENDCHAR
STARTCHAR afii10072
ENCODING 1078
SWIDTH 735 0
DWIDTH 6 0
BBX 6 5 0 0
BITMAP
4000
5580
1A40
2580
9550
ENDCHAR
STARTCHAR afii10073
ENCODING 1079
SWIDTH 482 0
DWIDTH 4 0
BBX 4 5 0 0
BITMAP
14
59
18
05
59
ENDCHAR
STARTCHAR afii10074
ENCODING 1080
SWIDTH 633 0
DWIDTH 5 0
BBX 5 4 0 0
BITMAP
5240
5940
5540
6140
ENDCHAR
STARTCHAR afii10075
ENCODING 1081
SWIDTH 633 0
DWIDTH 5 0
BBX 5 6 0 0
BITMAP
2600
0000
5240
5940
5540
6140
ENDCHAR
STARTCHAR afii10076
ENCODING 1082
SWIDTH 519 0
DWIDTH 4 0
BBX 4 5 0 0
BITMAP
01
55
64
58
56
ENDCHAR
STARTCHAR afii10077
ENCODING 1083
SWIDTH 570 0
DWIDTH 5 0
BBX 4 5 0 0
BITMAP
15
26
22
22
92
ENDCHAR
STARTCHAR afii10078
ENCODING 1084
SWIDTH 734 0
DWIDTH 6 0
BBX 6 5 0 0
BITMAP
0040
60D0
6590
5A50
5950
ENDCHAR
STARTCHAR afii10079
ENCODING 1085
SWIDTH 633 0
DWIDTH 5 0
BBX 5 4 0 0
BITMAP
5140
6640
5140
5140
ENDCHAR
STARTCHAR afii10080
ENCODING 1086
SWIDTH 604 0
DWIDTH 5 0
BBX 5 5 0 0
BITMAP
0400
6600
5140
5140
2A00
ENDCHAR
STARTCHAR afii10081
ENCODING 1087
SWIDTH 621 0
DWIDTH 5 0
BBX 5 5 0 0
BITMAP
1500
6640
5140
5140
5140
ENDCHAR
STARTCHAR afii10082
ENCODING 1088
SWIDTH 612 0
DWIDTH 5 0
BBX 5 7 0 -2
BITMAP
0400
6600
5140
5140
6A00
5000
5000
ENDCHAR
STARTCHAR afii10083
ENCODING 1089
SWIDTH 476 0
DWIDTH 4 0
BBX 4 5 0 0
BITMAP
04
64
50
50
29
ENDCHAR
STARTCHAR afii10084
ENCODING 1090
SWIDTH 466 0
DWIDTH 4 0
BBX 3 5 0 0
BITMAP
54
64
14
14
14
ENDCHAR
STARTCHAR afii10085
ENCODING 1091
SWIDTH 503 0
DWIDTH 4 0
BBX 4 7 0 -2
BITMAP
41
82
55
28
18
14
A0
ENDCHAR
STARTCHAR afii10086
ENCODING 1092
SWIDTH 714 0
DWIDTH 6 0
BBX 6 8 0 -2
BITMAP
0500
0900
2980
9550
5580
2A40
0500
0400
ENDCHAR
STARTCHAR afii10087
ENCODING 1093
SWIDTH 523 0
DWIDTH 4 0
BBX 4 5 0 0
BITMAP
41
55
28
28
52
ENDCHAR
STARTCHAR afii10088
ENCODING 1094
SWIDTH 625 0
DWIDTH 5 0
BBX 5 6 0 -2
BITMAP
5140
5140
5140
6A80
0080
0040
ENDCHAR
STARTCHAR afii10089
ENCODING 1095
SWIDTH 607 0
DWIDTH 5 0
BBX 5 4 0 0
BITMAP
5140
5240
1640
0140
ENDCHAR
STARTCHAR afii10090
ENCODING 1096
SWIDTH 890 0
DWIDTH 7 0
BBX 7 5 0 0
BITMAP
0100
5214
5214
5214
6BA4
ENDCHAR
STARTCHAR afii10091
ENCODING 1097
SWIDTH 896 0
DWIDTH 7 0
BBX 7 7 0 -2
BITMAP
0100
5214
5214
5214
6BA8
0008
0004
ENDCHAR
STARTCHAR afii10092
ENCODING 1098
SWIDTH 694 0
DWIDTH 6 0
BBX 5 5 0 0
BITMAP
5000
6400
1940
1480
1A80
ENDCHAR
STARTCHAR afii10093
ENCODING 1099
SWIDTH 770 0
DWIDTH 6 0
BBX 6 4 0 0
BITMAP
5050
6950
5250
6A50
ENDCHAR
STARTCHAR afii10094
ENCODING 1100
SWIDTH 591 0
DWIDTH 5 0
BBX 5 4 0 0
BITMAP
5000
6900
5240
6A00
ENDCHAR
STARTCHAR afii10095
ENCODING 1101
SWIDTH 492 0
DWIDTH 4 0
BBX 4 5 0 0
BITMAP
10
58
19
05
68
ENDCHAR
STARTCHAR afii10096
ENCODING 1102
SWIDTH 831 0
DWIDTH 7 0
BBX 6 5 0 0
BITMAP
0040
5660
6820
5520
52A0
ENDCHAR
STARTCHAR afii10097
ENCODING 1103
SWIDTH 555 0
DWIDTH 4 0
BBX 4 5 0 0
BITMAP
15
56
56
26
92
ENDCHAR
STARTCHAR uni0450
ENCODING 1104
SWIDTH 561 0
DWIDTH 4 0
BBX 4 6 0 0
BITMAP
14
04
66
6A
50
2A
ENDCHAR
STARTCHAR afii10071
ENCODING 1105
SWIDTH 561 0
DWIDTH 4 0
BBX 4 6 0 0
BITMAP
11
04
66
6A
50
2A
ENDCHAR
STARTCHAR afii10099
ENCODING 1106
SWIDTH 613 0
DWIDTH 5 0
BBX 5 8 0 -2
BITMAP
A400
5400
6600
5140
5140
5140
0140
0600
ENDCHAR
STARTCHAR afii10100
ENCODING 1107
SWIDTH 428 0
DWIDTH 3 0
BBX 3 6 0 0
BITMAP
18
14
64
50
50
50
ENDCHAR
STARTCHAR afii10101
ENCODING 1108
SWIDTH 492 0
DWIDTH 4 0
BBX 4 5 0 0
BITMAP
04
65
64
50
29
ENDCHAR
STARTCHAR afii10102
ENCODING 1109
SWIDTH 477 0
DWIDTH 4 0
BBX 4 5 0 0
BITMAP
14
54
64
05
59
ENDCHAR
STARTCHAR afii10103
ENCODING 1110
SWIDTH 252 0
DWIDTH 2 0
BBX 2 6 0 0
BITMAP
50
00
50
50
50
50
ENDCHAR
STARTCHAR afii10104
ENCODING 1111
SWIDTH 252 0
DWIDTH 2 0
BBX 2 6 0 0
BITMAP
50
00
50
50
50
50
ENDCHAR
STARTCHAR afii10105
ENCODING 1112
SWIDTH 252 0
DWIDTH 2 0
BBX 3 8 -1 -2
BITMAP
14
00
14
14
14
14
14
60
ENDCHAR
STARTCHAR afii10106
ENCODING 1113
SWIDTH 836 0
DWIDTH 7 0
BBX 7 5 0 0
BITMAP
1500
2600
2390
2224
92A0
ENDCHAR
STARTCHAR afii10107
ENCODING 1114
SWIDTH 886 0
DWIDTH 7 0
BBX 7 5 0 0
BITMAP
0100
5200
6690
5218
52A4
ENDCHAR
STARTCHAR afii10108
ENCODING 1115
SWIDTH 613 0
DWIDTH 5 0
BBX 5 6 0 0
BITMAP
A400
5400
6600
5140
5140
5140
ENDCHAR
STARTCHAR afii10109
ENCODING 1116
SWIDTH 519 0
DWIDTH 4 0
BBX 4 6 0 0
BITMAP
08
01
55
64
58
56
ENDCHAR
STARTCHAR uni045D
ENCODING 1117
SWIDTH 633 0
DWIDTH 5 0
BBX 5 6 0 0
BITMAP
1800
0000
5240
5940
5540
6140
ENDCHAR
STARTCHAR afii10110
ENCODING 1118
SWIDTH 503 0
DWIDTH 4 0
BBX 4 8 0 -2
BITMAP
69
41
82
55
28
18
14
A0
ENDCHAR
STARTCHAR afii10193
ENCODING 1119
SWIDTH 621 0
DWIDTH 5 0
BBX 5 6 0 -2
BITMAP
5140
5140
5140
6A40
0800
0400
ENDCHAR
STARTCHAR uni0460
ENCODING 1120
SWIDTH 1011 0
DWIDTH 8 0
BBX 8 6 0 0
BITMAP
1964
6005
5006
5146
5145
2AA8
ENDCHAR
STARTCHAR uni0461
ENCODING 1121
SWIDTH 818 0
DWIDTH 7 0
BBX 6 5 0 0
BITMAP
4400
8520
5620
2A20
2980
ENDCHAR
STARTCHAR uni0462
ENCODING 1122
SWIDTH 674 0
DWIDTH 5 0
BBX 5 6 0 0
BITMAP
2000
B900
2500
2580
2080
2A40
ENDCHAR
STARTCHAR uni0463
ENCODING 1123
SWIDTH 631 0
DWIDTH 5 0
BBX 5 5 0 0
BITMAP
6400
6400
2500
2180
2A40
ENDCHAR
STARTCHAR uni0464
ENCODING 1124
SWIDTH 918 0
DWIDTH 7 0
BBX 7 6 0 0
BITMAP
10A8
5200
6650
6650
5200
51A8
ENDCHAR
STARTCHAR uni0465
ENCODING 1125
SWIDTH 735 0
DWIDTH 6 0
BBX 6 5 0 0
BITMAP
0040
5650
6A40
5500
5290
ENDCHAR
STARTCHAR uni0466
ENCODING 1126
SWIDTH 678 0
DWIDTH 5 0
BBX 6 6 0 0
BITMAP
0800
0A00
2600
2A40
5880
8850
ENDCHAR
STARTCHAR uni0467
ENCODING 1127
SWIDTH 563 0
DWIDTH 5 0
BBX 5 5 0 0
BITMAP
0400
1800
2900
5A00
8940
ENDCHAR
STARTCHAR uni0468
ENCODING 1128
SWIDTH 920 0
DWIDTH 7 0
BBX 7 6 0 0
BITMAP
1080
5090
6660
66A4
5588
5888
ENDCHAR
STARTCHAR uni0469
ENCODING 1129
SWIDTH 766 0
DWIDTH 6 0
BBX 6 4 0 0
BITMAP
5280
6A80
5950
5920
ENDCHAR
STARTCHAR uni046A
ENCODING 1130
SWIDTH 721 0
DWIDTH 6 0
BBX 6 6 0 0
BITMAP
6A80
2180
1A00
2980
5550
8520
ENDCHAR
STARTCHAR uni046B
ENCODING 1131
SWIDTH 642 0
DWIDTH 5 0
BBX 5 5 0 0
BITMAP
1500
2640
2A00
5940
8880
ENDCHAR
STARTCHAR uni046C
ENCODING 1132
SWIDTH 974 0
DWIDTH 8 0
BBX 8 6 0 0
BITMAP
16A8
5208
65A0
66A8
5555
5852
ENDCHAR
STARTCHAR uni046D
ENCODING 1133
SWIDTH 846 0
DWIDTH 7 0
BBX 7 5 0 0
BITMAP
0550
5660
6690
59A0
5888
ENDCHAR
STARTCHAR uni046E
ENCODING 1134
SWIDTH 582 0
DWIDTH 5 0
BBX 4 9 0 -2
BITMAP
15
69
02
16
16
02
1A
90
6A
ENDCHAR
STARTCHAR uni046F
ENCODING 1135
SWIDTH 482 0
DWIDTH 4 0
BBX 4 7 0 -2
BITMAP
28
59
18
05
59
94
15
ENDCHAR
STARTCHAR uni0470
ENCODING 1136
SWIDTH 795 0
DWIDTH 6 0
BBX 6 6 0 0
BITMAP
4110
8220
9220
2690
0600
0200
ENDCHAR
STARTCHAR uni0471
ENCODING 1137
SWIDTH 752 0
DWIDTH 6 0
BBX 6 8 0 -2
BITMAP
0500
0500
5550
5510
5550
2A80
0500
0500
ENDCHAR
STARTCHAR uni0472
ENCODING 1138
SWIDTH 779 0
DWIDTH 6 0
BBX 6 6 0 0
BITMAP
1A40
2050
5560
6560
5050
2A80
ENDCHAR
STARTCHAR uni0473
ENCODING 1139
SWIDTH 604 0
DWIDTH 5 0
BBX 5 5 0 0
BITMAP
0400
6600
6640
5140
2A00
ENDCHAR
STARTCHAR uni0474
ENCODING 1140
SWIDTH 625 0
DWIDTH 5 0
BBX 5 6 0 0
BITMAP
8080
8140
6200
2200
1900
0C00
ENDCHAR
STARTCHAR uni0475
ENCODING 1141
SWIDTH 505 0
DWIDTH 4 0
BBX 4 5 0 0
BITMAP
41
82
55
28
28
ENDCHAR
STARTCHAR uni0476
ENCODING 1142
SWIDTH 625 0
DWIDTH 5 0
BBX 5 8 0 0
BITMAP
1400
1500
8080
8140
6200
2200
1900
0C00
ENDCHAR
STARTCHAR uni0477
ENCODING 1143
SWIDTH 505 0
DWIDTH 4 0
BBX 4 6 0 0
BITMAP
58
41
82
55
28
28
ENDCHAR
STARTCHAR uni0478
ENCODING 1144
SWIDTH 1208 0
DWIDTH 10 0
BBX 10 8 0 -2
BITMAP
1A4000
208000
505850
505880
508580
2A4240
000200
000900
ENDCHAR
STARTCHAR uni0479
ENCODING 1145
SWIDTH 1061 0
DWIDTH 8 0
BBX 9 7 0 -2
BITMAP
040000
665240
516200
515500
2A0C00
000800
006000
ENDCHAR
STARTCHAR uni047A
ENCODING 1146
SWIDTH 818 0
DWIDTH 7 0
BBX 6 7 0 -1
BITMAP
1B40
2060
5020
5020
6020
1A80
0100
ENDCHAR
STARTCHAR uni047B
ENCODING 1147
SWIDTH 657 0
DWIDTH 5 0
BBX 5 6 0 -1
BITMAP
0900
6540
5080
5080
2A40
0400
ENDCHAR
STARTCHAR uni047C
ENCODING 1148
SWIDTH 999 0
DWIDTH 8 0
BBX 8 8 0 0
BITMAP
0290
0040
1964
6009
5005
5005
5005
2AA8
ENDCHAR
STARTCHAR uni047D
ENCODING 1149
SWIDTH 808 0
DWIDTH 6 0
BBX 6 7 0 0
BITMAP
0A40
0100
1440
6460
8020
5020
2A90
ENDCHAR
STARTCHAR uni047E
ENCODING 1150
SWIDTH 983 0
DWIDTH 8 0
BBX 8 7 0 0
BITMAP
0550
2864
5009
8005
8105
5145
2AA8
ENDCHAR
STARTCHAR uni047F
ENCODING 1151
SWIDTH 818 0
DWIDTH 7 0
BBX 6 6 0 0
BITMAP
1540
4400
8520
5620
2A20
2980
ENDCHAR
STARTCHAR uni0480
ENCODING 1152
SWIDTH 639 0
DWIDTH 5 0
BBX 5 8 0 -2
BITMAP
1A40
2000
5000
5000
6000
2A00
0200
0200
ENDCHAR
STARTCHAR uni0481
ENCODING 1153
SWIDTH 487 0
DWIDTH 4 0
BBX 4 7 0 -2
BITMAP
04
65
50
50
28
05
05
ENDCHAR
STARTCHAR uni0482
ENCODING 1154
SWIDTH 608 0
DWIDTH 5 0
BBX 5 5 0 0
BITMAP
0200
0A00
5940
2800
2000
ENDCHAR
STARTCHAR uni0483
ENCODING 1155
SWIDTH 557 0
DWIDTH 4 0
BBX 3 2 1 4
BITMAP
54
40
ENDCHAR
STARTCHAR uni0484
ENCODING 1156
SWIDTH 577 0
DWIDTH 5 0
BBX 3 1 1 5
BITMAP
64
ENDCHAR
STARTCHAR uni0485
ENCODING 1157
SWIDTH 577 0
DWIDTH 5 0
BBX 1 1 2 5
BITMAP
80
ENDCHAR
STARTCHAR uni0486
ENCODING 1158
SWIDTH 577 0
DWIDTH 5 0
BBX 1 1 2 5
BITMAP
80
ENDCHAR
STARTCHAR uni0488
ENCODING 1160
SWIDTH 988 0
DWIDTH 8 0
BBX 8 7 0 -1
BITMAP
0140
1004
0000
5005
0000
1014
0140
ENDCHAR
STARTCHAR uni0489
ENCODING 1161
SWIDTH 956 0
DWIDTH 8 0
BBX 7 8 0 -2
BITMAP
0100
1114
0010
5004
0000
1410
1104
0100
ENDCHAR
STARTCHAR uni048A
ENCODING 1162
SWIDTH 770 0
DWIDTH 6 0
BBX 6 10 0 -2
BITMAP
0040
0A00
1050
5190
5250
5950
6850
6060
0020
0010
ENDCHAR
STARTCHAR uni048B
ENCODING 1163
SWIDTH 643 0
DWIDTH 5 0
BBX 5 8 0 -2
BITMAP
2600
0100
5240
5940
5540
6180
0080
0040
ENDCHAR
STARTCHAR uni048C
ENCODING 1164
SWIDTH 612 0
DWIDTH 5 0
BBX 5 6 0 0
BITMAP
1000
A400
6400
6640
5140
6A00
ENDCHAR
STARTCHAR uni048D
ENCODING 1165
SWIDTH 591 0
DWIDTH 5 0
BBX 5 6 0 0
BITMAP
5000
A400
5000
6900
5240
6A00
ENDCHAR
STARTCHAR uni048E
ENCODING 1166
SWIDTH 610 0
DWIDTH 5 0
BBX 5 6 0 0
BITMAP
2900
5140
5540
6A00
5000
5000
ENDCHAR
STARTCHAR uni048F
ENCODING 1167
SWIDTH 612 0
DWIDTH 5 0
BBX 5 7 0 -2
BITMAP
0400
6600
5140
5140
6B00
5100
5000
ENDCHAR
STARTCHAR afii10050
ENCODING 1168
SWIDTH 526 0
DWIDTH 4 0
BBX 4 7 0 0
BITMAP
02
2A
50
50
50
50
50
ENDCHAR
STARTCHAR afii10098
ENCODING 1169
SWIDTH 428 0
DWIDTH 3 0
BBX 4 6 0 0
BITMAP
04
19
54
50
50
50
ENDCHAR
STARTCHAR uni0492
ENCODING 1170
SWIDTH 526 0
DWIDTH 4 0
BBX 4 6 0 0
BITMAP
2A
50
60
64
50
50
ENDCHAR
STARTCHAR uni0493
ENCODING 1171
SWIDTH 428 0
DWIDTH 3 0
BBX 3 5 0 0
BITMAP
14
64
A4
50
50
ENDCHAR
STARTCHAR uni0494
ENCODING 1172
SWIDTH 642 0
DWIDTH 5 0
BBX 5 8 0 -2
BITMAP
2A00
5000
6000
6600
5080
5080
0080
1A00
ENDCHAR
STARTCHAR uni0495
ENCODING 1173
SWIDTH 524 0
DWIDTH 4 0
BBX 4 7 0 -2
BITMAP
14
64
64
56
52
02
19
ENDCHAR
STARTCHAR uni0496
ENCODING 1174
SWIDTH 890 0
DWIDTH 7 0
BBX 7 8 0 -2
BITMAP
4114
2220
0A80
0A80
2260
9218
0008
0004
ENDCHAR
STARTCHAR uni0497
ENCODING 1175
SWIDTH 779 0
DWIDTH 6 0
BBX 6 7 0 -2
BITMAP
4000
5580
1A40
2580
9560
0020
0010
ENDCHAR
STARTCHAR uni0498
ENCODING 1176
SWIDTH 581 0
DWIDTH 5 0
BBX 4 8 0 -2
BITMAP
69
02
16
16
02
6A
04
14
ENDCHAR
STARTCHAR uni0499
ENCODING 1177
SWIDTH 482 0
DWIDTH 4 0
BBX 4 7 0 -2
BITMAP
14
59
18
05
59
14
14
ENDCHAR
STARTCHAR uni049A
ENCODING 1178
SWIDTH 661 0
DWIDTH 5 0
BBX 6 8 0 -2
BITMAP
1140
5200
6800
6800
5200
5180
0050
0040
ENDCHAR
STARTCHAR uni049B
ENCODING 1179
SWIDTH 544 0
DWIDTH 4 0
BBX 5 7 0 -2
BITMAP
0100
5500
6400
5800
5600
0140
0100
ENDCHAR
STARTCHAR uni049C
ENCODING 1180
SWIDTH 613 0
DWIDTH 5 0
BBX 5 6 0 0
BITMAP
1140
6600
6800
6C00
6600
5180
ENDCHAR
STARTCHAR uni049D
ENCODING 1181
SWIDTH 533 0
DWIDTH 4 0
BBX 4 5 0 0
BITMAP
01
69
64
68
56
ENDCHAR
STARTCHAR uni049E
ENCODING 1182
SWIDTH 613 0
DWIDTH 5 0
BBX 5 6 0 0
BITMAP
1140
A600
6800
6800
5200
5180
ENDCHAR
STARTCHAR uni049F
ENCODING 1183
SWIDTH 517 0
DWIDTH 4 0
BBX 4 6 0 0
BITMAP
A4
51
55
64
58
52
ENDCHAR
STARTCHAR uni04A0
ENCODING 1184
SWIDTH 688 0
DWIDTH 6 0
BBX 6 6 0 0
BITMAP
A040
2140
2500
2A00
2140
2090
ENDCHAR
STARTCHAR uni04A1
ENCODING 1185
SWIDTH 615 0
DWIDTH 5 0
BBX 5 5 0 0
BITMAP
5040
6600
1900
1500
1540
ENDCHAR
STARTCHAR uni04A2
ENCODING 1186
SWIDTH 746 0
DWIDTH 6 0
BBX 6 8 0 -2
BITMAP
1040
5080
6580
6580
5080
50A0
0020
0010
ENDCHAR
STARTCHAR uni04A3
ENCODING 1187
SWIDTH 647 0
DWIDTH 5 0
BBX 5 6 0 -2
BITMAP
5140
6640
5140
5180
0080
0040
ENDCHAR
STARTCHAR uni04A4
ENCODING 1188
SWIDTH 812 0
DWIDTH 7 0
BBX 7 6 0 0
BITMAP
1064
5080
6580
6580
5080
5080
ENDCHAR
STARTCHAR uni04A5
ENCODING 1189
SWIDTH 735 0
DWIDTH 6 0
BBX 6 5 0 0
BITMAP
0050
5190
6640
5140
5140
ENDCHAR
STARTCHAR uni04A6
ENCODING 1190
SWIDTH 1066 0
DWIDTH 9 0
BBX 8 8 0 -2
BITMAP
2A80
5080
5080
5099
5082
5082
0002
0029
ENDCHAR
STARTCHAR uni04A7
ENCODING 1191
SWIDTH 865 0
DWIDTH 7 0
BBX 7 7 0 -2
BITMAP
1500
6600
5290
5254
5208
0008
0060
ENDCHAR
STARTCHAR uni04A8
ENCODING 1192
SWIDTH 778 0
DWIDTH 6 0
BBX 6 7 0 -1
BITMAP
1900
2180
5220
5220
5250
2AD0
0010
ENDCHAR
STARTCHAR uni04A9
ENCODING 1193
SWIDTH 640 0
DWIDTH 5 0
BBX 5 5 0 0
BITMAP
0400
6500
4980
5880
2B40
ENDCHAR
STARTCHAR uni04AA
ENCODING 1194
SWIDTH 630 0
DWIDTH 5 0
BBX 5 8 0 -2
BITMAP
1A40
2000
5000
5000
6000
2A40
0500
0500
ENDCHAR
STARTCHAR uni04AB
ENCODING 1195
SWIDTH 476 0
DWIDTH 4 0
BBX 4 7 0 -2
BITMAP
04
64
50
50
29
08
04
ENDCHAR
STARTCHAR uni04AC
ENCODING 1196
SWIDTH 553 0
DWIDTH 4 0
BBX 5 8 0 -2
BITMAP
AA40
0800
0800
0800
0800
0800
0500
0400
ENDCHAR
STARTCHAR uni04AD
ENCODING 1197
SWIDTH 466 0
DWIDTH 4 0
BBX 3 7 0 -2
BITMAP
54
64
14
14
18
08
04
ENDCHAR
STARTCHAR uni04AE
ENCODING 1198
SWIDTH 560 0
DWIDTH 4 0
BBX 5 6 0 0
BITMAP
8140
5200
2500
1800
0800
0800
ENDCHAR
STARTCHAR uni04AF
ENCODING 1199
SWIDTH 500 0
DWIDTH 4 0
BBX 4 7 0 -2
BITMAP
41
82
55
28
14
14
14
ENDCHAR
STARTCHAR uni04B0
ENCODING 1200
SWIDTH 560 0
DWIDTH 4 0
BBX 5 6 0 0
BITMAP
8140
5200
2500
1800
2900
0800
ENDCHAR
STARTCHAR uni04B1
ENCODING 1201
SWIDTH 500 0
DWIDTH 4 0
BBX 4 7 0 -2
BITMAP
41
82
55
28
28
69
14
ENDCHAR
STARTCHAR uni04B2
ENCODING 1202
SWIDTH 619 0
DWIDTH 5 0
BBX 5 8 0 -2
BITMAP
4100
2200
1800
1800
2200
8180
0080
0040
ENDCHAR
STARTCHAR uni04B3
ENCODING 1203
SWIDTH 541 0
DWIDTH 4 0
BBX 5 7 0 -2
BITMAP
4100
5500
2800
2800
5200
0140
0100
ENDCHAR
STARTCHAR uni04B4
ENCODING 1204
SWIDTH 854 0
DWIDTH 7 0
BBX 7 8 0 -2
BITMAP
AA10
1420
1420
1420
1420
1AB4
0008
0004
ENDCHAR
STARTCHAR uni04B5
ENCODING 1205
SWIDTH 716 0
DWIDTH 6 0
BBX 6 7 0 -2
BITMAP
5440
6480
2080
2080
2AD0
0020
0010
ENDCHAR
STARTCHAR uni04B6
ENCODING 1206
SWIDTH 691 0
DWIDTH 6 0
BBX 6 8 0 -2
BITMAP
5040
5080
5080
2A80
0080
0090
0050
0010
ENDCHAR
STARTCHAR uni04B7
ENCODING 1207
SWIDTH 608 0
DWIDTH 5 0
BBX 5 6 0 -2
BITMAP
5140
5240
1640
0180
0080
0040
ENDCHAR
STARTCHAR uni04B8
ENCODING 1208
SWIDTH 694 0
DWIDTH 6 0
BBX 5 6 0 0
BITMAP
5040
5080
5480
2A80
0880
0080
ENDCHAR
STARTCHAR uni04B9
ENCODING 1209
SWIDTH 600 0
DWIDTH 5 0
BBX 4 4 0 0
BITMAP
52
5A
1A
06
ENDCHAR
STARTCHAR uni04BA
ENCODING 1210
SWIDTH 694 0
DWIDTH 6 0
BBX 5 6 0 0
BITMAP
1000
5000
6A40
6080
5080
5080
ENDCHAR
STARTCHAR uni04BB
ENCODING 1211
SWIDTH 584 0
DWIDTH 5 0
BBX 5 4 0 0
BITMAP
5000
6A00
5140
5140
ENDCHAR
STARTCHAR uni04BC
ENCODING 1212
SWIDTH 837 0
DWIDTH 7 0
BBX 7 6 0 0
BITMAP
0690
1820
A564
2550
1400
0AA0
ENDCHAR
STARTCHAR uni04BD
ENCODING 1213
SWIDTH 659 0
DWIDTH 5 0
BBX 5 5 0 0
BITMAP
0500
5580
BA80
2000
1A40
ENDCHAR
STARTCHAR uni04BE
ENCODING 1214
SWIDTH 837 0
DWIDTH 7 0
BBX 7 8 0 -2
BITMAP
0690
1820
A564
2550
1400
0AA0
0140
0100
ENDCHAR
STARTCHAR uni04BF
ENCODING 1215
SWIDTH 659 0
DWIDTH 5 0
BBX 5 7 0 -2
BITMAP
0500
5580
BA80
2000
1A40
0500
0100
ENDCHAR
STARTCHAR uni04C0
ENCODING 1216
SWIDTH 278 0
DWIDTH 2 0
BBX 2 6 0 0
BITMAP
10
50
50
50
50
50
ENDCHAR
STARTCHAR uni04C1
ENCODING 1217
SWIDTH 844 0
DWIDTH 7 0
BBX 7 8 0 0
BITMAP
0440
0A40
4114
2220
0A80
0A80
2260
9214
ENDCHAR
STARTCHAR uni04C2
ENCODING 1218
SWIDTH 735 0
DWIDTH 6 0
BBX 6 6 0 0
BITMAP
1A40
4400
5580
1A40
2580
9550
ENDCHAR
STARTCHAR uni04C3
ENCODING 1219
SWIDTH 688 0
DWIDTH 6 0
BBX 5 8 0 -2
BITMAP
1140
5600
6800
6A40
5080
5080
0080
0A40
ENDCHAR
STARTCHAR uni04C4
ENCODING 1220
SWIDTH 548 0
DWIDTH 4 0
BBX 4 7 0 -2
BITMAP
01
55
68
56
52
02
19
ENDCHAR
STARTCHAR uni04C5
ENCODING 1221
SWIDTH 706 0
DWIDTH 6 0
BBX 6 8 0 -2
BITMAP
1A80
1480
2080
2080
2080
9090
0050
0040
ENDCHAR
STARTCHAR uni04C6
ENCODING 1222
SWIDTH 571 0
DWIDTH 5 0
BBX 5 7 0 -2
BITMAP
1500
2600
2200
2200
9240
0140
0100
ENDCHAR
STARTCHAR uni04C7
ENCODING 1223
SWIDTH 727 0
DWIDTH 6 0
BBX 5 8 0 -2
BITMAP
1040
5080
6580
6580
5080
5080
0080
0A40
ENDCHAR
STARTCHAR uni04C8
ENCODING 1224
SWIDTH 616 0
DWIDTH 5 0
BBX 5 6 0 -2
BITMAP
5140
6640
5140
5140
0140
0A00
ENDCHAR
STARTCHAR uni04C9
ENCODING 1225
SWIDTH 745 0
DWIDTH 6 0
BBX 6 8 0 -2
BITMAP
1040
5080
6580
6580
5080
50A0
0020
0040
ENDCHAR
STARTCHAR uni04CA
ENCODING 1226
SWIDTH 652 0
DWIDTH 5 0
BBX 5 6 0 -2
BITMAP
5140
6640
5140
5180
0080
0040
ENDCHAR
STARTCHAR uni04CB
ENCODING 1227
SWIDTH 694 0
DWIDTH 6 0
BBX 5 8 0 -2
BITMAP
5040
5080
5080
2A80
0080
0180
0200
0100
ENDCHAR
STARTCHAR uni04CC
ENCODING 1228
SWIDTH 607 0
DWIDTH 5 0
BBX 5 6 0 -2
BITMAP
5140
5240
1640
0240
0200
0100
ENDCHAR
STARTCHAR uni04CD
ENCODING 1229
SWIDTH 903 0
DWIDTH 7 0
BBX 7 8 0 -2
BITMAP
2014
6424
5854
5894
5654
5318
0008
0004
ENDCHAR
STARTCHAR uni04CE
ENCODING 1230
SWIDTH 735 0
DWIDTH 6 0
BBX 6 7 0 -2
BITMAP
0040
60D0
6590
5A50
5960
0020
0010
ENDCHAR
STARTCHAR uni04CF
ENCODING 1231
SWIDTH 278 0
DWIDTH 2 0
BBX 2 6 0 0
BITMAP
10
50
50
50
50
50
ENDCHAR
STARTCHAR uni04D0
ENCODING 1232
SWIDTH 632 0
DWIDTH 5 0
BBX 5 8 0 0
BITMAP
1100
1900
0800
1900
2200
2600
5540
8080
ENDCHAR
STARTCHAR uni04D1
ENCODING 1233
SWIDTH 556 0
DWIDTH 4 0
BBX 4 6 0 0
BITMAP
25
14
16
16
92
6A
ENDCHAR
STARTCHAR uni04D2
ENCODING 1234
SWIDTH 632 0
DWIDTH 5 0
BBX 5 7 0 0
BITMAP
1100
0800
1900
2200
2600
5540
8080
ENDCHAR
STARTCHAR uni04D3
ENCODING 1235
SWIDTH 556 0
DWIDTH 4 0
BBX 4 6 0 0
BITMAP
15
14
16
16
92
6A
ENDCHAR
STARTCHAR uni04D4
ENCODING 1236
SWIDTH 873 0
DWIDTH 7 0
BBX 7 6 0 0
BITMAP
06A4
0940
1550
2650
5640
81A4
ENDCHAR
STARTCHAR uni04D5
ENCODING 1237
SWIDTH 857 0
DWIDTH 7 0
BBX 7 5 0 0
BITMAP
1440
1664
17A4
9200
69A0
ENDCHAR
STARTCHAR uni04D6
ENCODING 1238
SWIDTH 556 0
DWIDTH 4 0
BBX 4 8 0 0
BITMAP
11
29
2A
50
65
65
50
6A
ENDCHAR
STARTCHAR uni04D7
ENCODING 1239
SWIDTH 561 0
DWIDTH 4 0
BBX 4 6 0 0
BITMAP
26
14
66
6A
50
2A
ENDCHAR
STARTCHAR uni04D8
ENCODING 1240
SWIDTH 729 0
DWIDTH 6 0
BBX 6 6 0 0
BITMAP
2A00
0080
0090
A590
5080
2A40
ENDCHAR
STARTCHAR uni04D9
ENCODING 1241
SWIDTH 559 0
DWIDTH 4 0
BBX 4 5 0 0
BITMAP
14
56
16
96
29
ENDCHAR
STARTCHAR uni04DA
ENCODING 1242
SWIDTH 729 0
DWIDTH 6 0
BBX 6 7 0 0
BITMAP
0500
2A00
0080
0090
A590
5080
2A40
ENDCHAR
STARTCHAR uni04DB
ENCODING 1243
SWIDTH 559 0
DWIDTH 4 0
BBX 4 6 0 0
BITMAP
14
14
56
16
96
29
ENDCHAR
STARTCHAR uni04DC
ENCODING 1244
SWIDTH 844 0
DWIDTH 7 0
BBX 7 7 0 0
BITMAP
0440
4114
2220
0A80
0A80
2260
9214
ENDCHAR
STARTCHAR uni04DD
ENCODING 1245
SWIDTH 735 0
DWIDTH 6 0
BBX 6 6 0 0
BITMAP
0500
4000
5580
1A40
2580
9550
ENDCHAR
STARTCHAR uni04DE
ENCODING 1246
SWIDTH 581 0
DWIDTH 5 0
BBX 4 7 0 0
BITMAP
11
69
02
16
16
02
6A
ENDCHAR
STARTCHAR uni04DF
ENCODING 1247
SWIDTH 482 0
DWIDTH 4 0
BBX 4 6 0 0
BITMAP
14
14
59
18
05
59
ENDCHAR
STARTCHAR uni04E0
ENCODING 1248
SWIDTH 583 0
DWIDTH 5 0
BBX 4 6 0 0
BITMAP
6A
05
14
16
02
6A
ENDCHAR
STARTCHAR uni04E1
ENCODING 1249
SWIDTH 488 0
DWIDTH 4 0
BBX 4 7 0 -2
BITMAP
54
59
14
28
02
02
A8
ENDCHAR
STARTCHAR uni04E2
ENCODING 1250
SWIDTH 762 0
DWIDTH 6 0
BBX 6 7 0 0
BITMAP
0A00
1050
5190
5250
5950
6850
6050
ENDCHAR
STARTCHAR uni04E3
ENCODING 1251
SWIDTH 633 0
DWIDTH 5 0
BBX 5 6 0 0
BITMAP
1500
1100
5240
5940
5540
6140
ENDCHAR
STARTCHAR uni04E4
ENCODING 1252
SWIDTH 762 0
DWIDTH 6 0
BBX 6 7 0 0
BITMAP
0500
1050
5190
5250
5950
6850
6050
ENDCHAR
STARTCHAR uni04E5
ENCODING 1253
SWIDTH 633 0
DWIDTH 5 0
BBX 5 6 0 0
BITMAP
1100
0000
5240
5940
5540
6140
ENDCHAR
STARTCHAR uni04E6
ENCODING 1254
SWIDTH 778 0
DWIDTH 6 0
BBX 6 7 0 0
BITMAP
0500
1A40
2050
5020
5020
5050
2A80
ENDCHAR
STARTCHAR uni04E7
ENCODING 1255
SWIDTH 604 0
DWIDTH 5 0
BBX 5 6 0 0
BITMAP
1100
0400
6600
5140
5140
2A00
ENDCHAR
STARTCHAR uni04E8
ENCODING 1256
SWIDTH 779 0
DWIDTH 6 0
BBX 6 6 0 0
BITMAP
1A40
2050
5560
6560
5050
2A80
ENDCHAR
STARTCHAR uni04E9
ENCODING 1257
SWIDTH 604 0
DWIDTH 5 0
BBX 5 5 0 0
BITMAP
0400
6600
6640
5140
2A00
ENDCHAR
STARTCHAR uni04EA
ENCODING 1258
SWIDTH 779 0
DWIDTH 6 0
BBX 6 7 0 0
BITMAP
0500
1A40
2050
5560
6560
5050
2A80
ENDCHAR
STARTCHAR uni04EB
ENCODING 1259
SWIDTH 604 0
DWIDTH 5 0
BBX 5 6 0 0
BITMAP
1100
0400
6600
6640
5140
2A00
ENDCHAR
STARTCHAR uni04EC
ENCODING 1260
SWIDTH 629 0
DWIDTH 5 0
BBX 5 7 0 0
BITMAP
1400
6900
0240
1540
1540
0240
6900
ENDCHAR
STARTCHAR uni04ED
ENCODING 1261
SWIDTH 492 0
DWIDTH 4 0
BBX 4 6 0 0
BITMAP
14
10
58
19
05
68
ENDCHAR
STARTCHAR uni04EE
ENCODING 1262
SWIDTH 621 0
DWIDTH 5 0
BBX 5 7 0 0
BITMAP
1900
4040
5140
2200
1A00
0800
6400
ENDCHAR
STARTCHAR uni04EF
ENCODING 1263
SWIDTH 503 0
DWIDTH 4 0
BBX 4 8 0 -2
BITMAP
14
41
82
55
28
18
14
A0
ENDCHAR
STARTCHAR uni04F0
ENCODING 1264
SWIDTH 621 0
DWIDTH 5 0
BBX 5 7 0 0
BITMAP
1100
4040
5140
2200
1A00
0800
6400
ENDCHAR
STARTCHAR uni04F1
ENCODING 1265
SWIDTH 503 0
DWIDTH 4 0
BBX 4 8 0 -2
BITMAP
14
41
82
55
28
18
14
A0
ENDCHAR
STARTCHAR uni04F2
ENCODING 1266
SWIDTH 621 0
DWIDTH 5 0
BBX 5 8 0 0
BITMAP
0500
1500
4040
5140
2200
1A00
0800
6400
ENDCHAR
STARTCHAR uni04F3
ENCODING 1267
SWIDTH 503 0
DWIDTH 4 0
BBX 4 8 0 -2
BITMAP
25
41
82
55
28
18
14
A0
ENDCHAR
STARTCHAR uni04F4
ENCODING 1268
SWIDTH 694 0
DWIDTH 6 0
BBX 5 7 0 0
BITMAP
1100
5040
5080
5080
2A80
0080
0080
ENDCHAR
STARTCHAR uni04F5
ENCODING 1269
SWIDTH 607 0
DWIDTH 5 0
BBX 5 6 0 0
BITMAP
1100
0000
5140
5240
1640
0140
ENDCHAR
STARTCHAR uni04F6
ENCODING 1270
SWIDTH 526 0
DWIDTH 4 0
BBX 4 8 0 -2
BITMAP
2A
50
50
50
50
60
20
10
ENDCHAR
STARTCHAR uni04F7
ENCODING 1271
SWIDTH 428 0
DWIDTH 3 0
BBX 3 7 0 -2
BITMAP
14
64
50
50
60
20
10
ENDCHAR
STARTCHAR uni04F8
ENCODING 1272
SWIDTH 853 0
DWIDTH 7 0
BBX 6 7 0 0
BITMAP
0440
1010
5020
6420
6660
5160
6A20
ENDCHAR
STARTCHAR uni04F9
ENCODING 1273
SWIDTH 770 0
DWIDTH 6 0
BBX 6 6 0 0
BITMAP
0500
0000
5050
6950
5250
6A50
ENDCHAR
STARTCHAR uni04FA
ENCODING 1274
SWIDTH 526 0
DWIDTH 4 0
BBX 4 8 0 -2
BITMAP
2A
50
60
64
50
60
20
10
ENDCHAR
STARTCHAR uni04FB
ENCODING 1275
SWIDTH 428 0
DWIDTH 3 0
BBX 3 7 0 -2
BITMAP
14
64
A4
50
60
20
50
ENDCHAR
STARTCHAR uni04FC
ENCODING 1276
SWIDTH 621 0
DWIDTH 5 0
BBX 5 8 0 -2
BITMAP
4100
2200
1800
1800
2200
8180
0080
0140
ENDCHAR
STARTCHAR uni04FD
ENCODING 1277
SWIDTH 540 0
DWIDTH 4 0
BBX 5 7 0 -2
BITMAP
4100
5500
2800
2800
5200
0140
0100
ENDCHAR
STARTCHAR uni04FE
ENCODING 1278
SWIDTH 577 0
DWIDTH 5 0
BBX 5 6 0 0
BITMAP
4100
2200
2900
2900
2200
8140
ENDCHAR
STARTCHAR uni04FF
ENCODING 1279
SWIDTH 523 0
DWIDTH 4 0
BBX 4 5 0 0
BITMAP
41
55
6D
28
52
ENDCHAR
STARTCHAR uni0500
ENCODING 1280
SWIDTH 612 0
DWIDTH 5 0
BBX 5 6 0 0
BITMAP
0100
0140
0640
6640
5140
2A40
ENDCHAR
STARTCHAR uni0501
ENCODING 1281
SWIDTH 612 0
DWIDTH 5 0
BBX 5 6 0 0
BITMAP
0140
0540
6640
5140
5240
2A40
ENDCHAR
STARTCHAR uni0502
ENCODING 1282
SWIDTH 898 0
DWIDTH 7 0
BBX 7 6 0 0
BITMAP
0100
0200
0600
6614
5214
2AA4
ENDCHAR
STARTCHAR uni0503
ENCODING 1283
SWIDTH 895 0
DWIDTH 7 0
BBX 7 6 0 0
BITMAP
0200
1600
6700
8204
5208
2AA4
ENDCHAR
STARTCHAR uni0504
ENCODING 1284
SWIDTH 903 0
DWIDTH 7 0
BBX 7 6 0 0
BITMAP
6900
0200
1500
1608
0214
01A4
ENDCHAR
STARTCHAR uni0505
ENCODING 1285
SWIDTH 801 0
DWIDTH 6 0
BBX 6 5 0 0
BITMAP
1400
5800
1810
0520
0290
ENDCHAR
STARTCHAR uni0506
ENCODING 1286
SWIDTH 625 0
DWIDTH 5 0
BBX 5 8 0 -2
BITMAP
6900
0200
1600
1600
0200
0180
0080
0040
ENDCHAR
STARTCHAR uni0507
ENCODING 1287
SWIDTH 522 0
DWIDTH 4 0
BBX 4 7 0 -2
BITMAP
14
59
18
05
06
02
01
ENDCHAR
STARTCHAR uni0508
ENCODING 1288
SWIDTH 980 0
DWIDTH 8 0
BBX 7 6 0 0
BITMAP
1A80
1480
2080
2088
2088
90A8
ENDCHAR
STARTCHAR uni0509
ENCODING 1289
SWIDTH 851 0
DWIDTH 7 0
BBX 6 5 0 0
BITMAP
1500
2600
2210
2210
92A0
ENDCHAR
STARTCHAR uni050A
ENCODING 1290
SWIDTH 1012 0
DWIDTH 8 0
BBX 8 6 0 0
BITMAP
1040
5080
6580
6585
5085
5068
ENDCHAR
STARTCHAR uni050B
ENCODING 1291
SWIDTH 913 0
DWIDTH 7 0
BBX 7 4 0 0
BITMAP
5140
6644
5148
50A4
ENDCHAR
STARTCHAR uni050C
ENCODING 1292
SWIDTH 755 0
DWIDTH 6 0
BBX 6 6 0 0
BITMAP
1A80
2000
5000
51A0
6050
1A80
ENDCHAR
STARTCHAR uni050D
ENCODING 1293
SWIDTH 640 0
DWIDTH 5 0
BBX 5 5 0 0
BITMAP
0500
2500
5140
5180
2640
ENDCHAR
STARTCHAR uni050E
ENCODING 1294
SWIDTH 709 0
DWIDTH 6 0
BBX 5 6 0 0
BITMAP
AA40
1400
1440
1480
1880
0A80
ENDCHAR
STARTCHAR uni050F
ENCODING 1295
SWIDTH 646 0
DWIDTH 5 0
BBX 5 5 0 0
BITMAP
5400
6400
2040
1480
1A40
ENDCHAR
STARTCHAR uni0510
ENCODING 1296
SWIDTH 583 0
DWIDTH 5 0
BBX 5 6 0 0
BITMAP
2A00
5000
2500
6500
9000
6A40
ENDCHAR
STARTCHAR uni0511
ENCODING 1297
SWIDTH 475 0
DWIDTH 4 0
BBX 4 5 0 0
BITMAP
14
55
64
90
69
ENDCHAR
STARTCHAR uni0512
ENCODING 1298
SWIDTH 700 0
DWIDTH 6 0
BBX 6 8 0 -2
BITMAP
1A80
1480
2080
2080
2080
9090
0050
0040
ENDCHAR
STARTCHAR uni0513
ENCODING 1299
SWIDTH 570 0
DWIDTH 5 0
BBX 5 7 0 -2
BITMAP
1500
2600
2200
2200
9240
0140
0100
ENDCHAR
STARTCHAR uni1E00
ENCODING 7680
SWIDTH 632 0
DWIDTH 5 0
BBX 5 8 0 -2
BITMAP
0800
1900
2200
2600
5540
8080
0400
1500
ENDCHAR
STARTCHAR uni1E01
ENCODING 7681
SWIDTH 556 0
DWIDTH 4 0
BBX 4 7 0 -2
BITMAP
14
16
16
92
6A
14
18
ENDCHAR
STARTCHAR uni1E3E
ENCODING 7742
SWIDTH 902 0
DWIDTH 7 0
BBX 7 8 0 0
BITMAP
0040
0100
2014
6424
5854
5894
5654
5314
ENDCHAR
STARTCHAR uni1E3F
ENCODING 7743
SWIDTH 930 0
DWIDTH 7 0
BBX 7 6 0 0
BITMAP
0140
0510
6658
5208
5208
5208
ENDCHAR
STARTCHAR Wgrave
ENCODING 7808
SWIDTH 925 0
DWIDTH 7 0
BBX 7 8 0 0
BITMAP
0100
0100
8204
8248
5588
2894
2860
2430
ENDCHAR
STARTCHAR wgrave
ENCODING 7809
SWIDTH 777 0
DWIDTH 6 0
BBX 6 6 0 0
BITMAP
0900
4100
8620
5A20
2590
34C0
ENDCHAR
STARTCHAR Wacute
ENCODING 7810
SWIDTH 925 0
DWIDTH 7 0
BBX 7 8 0 0
BITMAP
0040
0100
8204
8248
5588
2894
2860
2430
ENDCHAR
STARTCHAR wacute
ENCODING 7811
SWIDTH 777 0
DWIDTH 6 0
BBX 6 6 0 0
BITMAP
0200
4100
8620
5A20
2590
34C0
ENDCHAR
STARTCHAR Wdieresis
ENCODING 7812
SWIDTH 925 0
DWIDTH 7 0
BBX 7 7 0 0
BITMAP
0440
8204
8248
5588
2894
2860
2430
ENDCHAR
STARTCHAR wdieresis
ENCODING 7813
SWIDTH 777 0
DWIDTH 6 0
BBX 6 6 0 0
BITMAP
0500
4000
8620
5A20
2590
34C0
ENDCHAR
STARTCHAR uni1EA0
ENCODING 7840
SWIDTH 632 0
DWIDTH 5 0
BBX 5 8 0 -2
BITMAP
0800
1900
2200
2600
5540
8080
0400
0400
ENDCHAR
STARTCHAR uni1EA1
ENCODING 7841
SWIDTH 556 0
DWIDTH 4 0
BBX 4 6 0 -1
BITMAP
14
16
16
92
6A
04
ENDCHAR
STARTCHAR uni1EA2
ENCODING 7842
SWIDTH 632 0
DWIDTH 5 0
BBX 5 8 0 0
BITMAP
0500
0400
0800
1900
2200
2600
5540
8080
ENDCHAR
STARTCHAR uni1EA3
ENCODING 7843
SWIDTH 556 0
DWIDTH 4 0
BBX 4 7 0 0
BITMAP
04
08
14
16
16
92
6A
ENDCHAR
STARTCHAR uni1EA4
ENCODING 7844
SWIDTH 632 0
DWIDTH 5 0
BBX 5 8 0 0
BITMAP
0540
1500
0800
1900
2200
2600
5540
8080
ENDCHAR
STARTCHAR uni1EA5
ENCODING 7845
SWIDTH 556 0
DWIDTH 4 0
BBX 4 7 0 0
BITMAP
01
19
14
16
16
92
6A
ENDCHAR
STARTCHAR uni1EA6
ENCODING 7846
SWIDTH 632 0
DWIDTH 5 0
BBX 5 8 0 0
BITMAP
5400
1500
0800
1900
2200
2600
5540
8080
ENDCHAR
STARTCHAR uni1EA7
ENCODING 7847
SWIDTH 556 0
DWIDTH 4 0
BBX 4 7 0 0
BITMAP
40
28
14
16
16
92
6A
ENDCHAR
STARTCHAR uni1EA8
ENCODING 7848
SWIDTH 632 0
DWIDTH 5 0
BBX 5 9 0 0
BITMAP
0100
0500
1500
0800
1900
2200
2600
5540
8080
ENDCHAR
STARTCHAR uni1EA9
ENCODING 7849
SWIDTH 556 0
DWIDTH 4 0
BBX 4 7 0 0
BITMAP
02
19
14
16
16
92
6A
ENDCHAR
STARTCHAR uni1EAA
ENCODING 7850
SWIDTH 632 0
DWIDTH 5 0
BBX 5 9 0 0
BITMAP
0400
1900
1500
0800
1900
2200
2600
5540
8080
ENDCHAR
STARTCHAR uni1EAB
ENCODING 7851
SWIDTH 556 0
DWIDTH 4 0
BBX 4 7 0 0
BITMAP
15
18
14
16
16
92
6A
ENDCHAR
STARTCHAR uni1EAC
ENCODING 7852
SWIDTH 632 0
DWIDTH 5 0
BBX 5 10 0 -2
BITMAP
0400
1500
0800
1900
2200
2600
5540
8080
0400
0400
ENDCHAR
STARTCHAR uni1EAD
ENCODING 7853
SWIDTH 556 0
DWIDTH 4 0
BBX 4 7 0 -1
BITMAP
28
14
16
16
92
6A
04
ENDCHAR
STARTCHAR uni1EAE
ENCODING 7854
SWIDTH 632 0
DWIDTH 5 0
BBX 5 8 0 0
BITMAP
0500
1900
0800
1900
2200
2600
5540
8080
ENDCHAR
STARTCHAR uni1EAF
ENCODING 7855
SWIDTH 556 0
DWIDTH 4 0
BBX 4 7 0 0
BITMAP
04
18
14
16
16
92
6A
ENDCHAR
STARTCHAR uni1EB0
ENCODING 7856
SWIDTH 632 0
DWIDTH 5 0
BBX 5 8 0 0
BITMAP
1400
1900
0800
1900
2200
2600
5540
8080
ENDCHAR
STARTCHAR uni1EB1
ENCODING 7857
SWIDTH 556 0
DWIDTH 4 0
BBX 4 7 0 0
BITMAP
10
18
14
16
16
92
6A
ENDCHAR
STARTCHAR uni1EB2
ENCODING 7858
SWIDTH 632 0
DWIDTH 5 0
BBX 5 9 0 0
BITMAP
0400
0400
1900
0800
1900
2200
2600
5540
8080
ENDCHAR
STARTCHAR uni1EB3
ENCODING 7859
SWIDTH 556 0
DWIDTH 4 0
BBX 4 7 0 0
BITMAP
08
19
14
16
16
92
6A
ENDCHAR
STARTCHAR uni1EB4
ENCODING 7860
SWIDTH 632 0
DWIDTH 5 0
BBX 5 9 0 0
BITMAP
0400
1500
1900
0800
1900
2200
2600
5540
8080
ENDCHAR
STARTCHAR uni1EB5
ENCODING 7861
SWIDTH 556 0
DWIDTH 4 0
BBX 4 7 0 0
BITMAP
15
14
14
16
16
92
6A
ENDCHAR
STARTCHAR uni1EB6
ENCODING 7862
SWIDTH 632 0
DWIDTH 5 0
BBX 5 9 0 -2
BITMAP
1900
0800
1900
2200
2600
5540
8080
0400
0400
ENDCHAR
STARTCHAR uni1EB7
ENCODING 7863
SWIDTH 556 0
DWIDTH 4 0
BBX 4 7 0 -1
BITMAP
15
14
16
16
92
6A
04
ENDCHAR
STARTCHAR uni1EB8
ENCODING 7864
SWIDTH 556 0
DWIDTH 4 0
BBX 4 8 0 -2
BITMAP
2A
50
65
65
50
6A
04
04
ENDCHAR
STARTCHAR uni1EB9
ENCODING 7865
SWIDTH 561 0
DWIDTH 4 0
BBX 4 7 0 -2
BITMAP
04
66
6A
50
2A
04
04
ENDCHAR
STARTCHAR uni1EBA
ENCODING 7866
SWIDTH 556 0
DWIDTH 4 0
BBX 4 8 0 0
BITMAP
08
08
2A
50
65
65
50
6A
ENDCHAR
STARTCHAR uni1EBB
ENCODING 7867
SWIDTH 561 0
DWIDTH 4 0
BBX 4 7 0 0
BITMAP
04
08
04
66
6A
50
2A
ENDCHAR
STARTCHAR uni1EBC
ENCODING 7868
SWIDTH 556 0
DWIDTH 4 0
BBX 4 7 0 0
BITMAP
19
2A
50
65
65
50
6A
ENDCHAR
STARTCHAR uni1EBD
ENCODING 7869
SWIDTH 561 0
DWIDTH 4 0
BBX 4 6 0 0
BITMAP
29
14
66
6A
50
2A
ENDCHAR
STARTCHAR uni1EBE
ENCODING 7870
SWIDTH 556 0
DWIDTH 4 0
BBX 4 8 0 0
BITMAP
05
15
2A
50
65
65
50
6A
ENDCHAR
STARTCHAR uni1EBF
ENCODING 7871
SWIDTH 561 0
DWIDTH 4 0
BBX 4 7 0 0
BITMAP
01
19
14
66
6A
50
2A
ENDCHAR
STARTCHAR uni1EC0
ENCODING 7872
SWIDTH 556 0
DWIDTH 4 0
BBX 4 8 0 0
BITMAP
54
15
2A
50
65
65
50
6A
ENDCHAR
STARTCHAR uni1EC1
ENCODING 7873
SWIDTH 561 0
DWIDTH 4 0
BBX 4 7 0 0
BITMAP
40
28
14
66
6A
50
2A
ENDCHAR
STARTCHAR uni1EC2
ENCODING 7874
SWIDTH 556 0
DWIDTH 4 0
BBX 4 9 0 0
BITMAP
01
05
15
2A
50
65
65
50
6A
ENDCHAR
STARTCHAR uni1EC3
ENCODING 7875
SWIDTH 561 0
DWIDTH 4 0
BBX 4 7 0 0
BITMAP
02
19
14
66
6A
50
2A
ENDCHAR
STARTCHAR uni1EC4
ENCODING 7876
SWIDTH 556 0
DWIDTH 4 0
BBX 4 9 0 0
BITMAP
10
18
15
2A
50
65
65
50
6A
ENDCHAR
STARTCHAR uni1EC5
ENCODING 7877
SWIDTH 561 0
DWIDTH 4 0
BBX 4 7 0 0
BITMAP
15
18
14
66
6A
50
2A
ENDCHAR
STARTCHAR uni1EC6
ENCODING 7878
SWIDTH 556 0
DWIDTH 4 0
BBX 4 10 0 -2
BITMAP
04
15
2A
50
65
65
50
6A
04
04
ENDCHAR
STARTCHAR uni1EC7
ENCODING 7879
SWIDTH 561 0
DWIDTH 4 0
BBX 4 8 0 -2
BITMAP
18
14
66
6A
50
2A
04
04
ENDCHAR
STARTCHAR uni1EC8
ENCODING 7880
SWIDTH 278 0
DWIDTH 2 0
BBX 2 8 0 0
BITMAP
20
10
10
50
50
50
50
50
ENDCHAR
STARTCHAR uni1EC9
ENCODING 7881
SWIDTH 252 0
DWIDTH 2 0
BBX 2 7 0 0
BITMAP
50
20
00
50
50
50
50
ENDCHAR
STARTCHAR uni1ECA
ENCODING 7882
SWIDTH 278 0
DWIDTH 2 0
BBX 2 7 0 -1
BITMAP
10
50
50
50
50
50
10
ENDCHAR
STARTCHAR uni1ECB
ENCODING 7883
SWIDTH 252 0
DWIDTH 2 0
BBX 2 6 0 0
BITMAP
50
00
50
50
50
50
ENDCHAR
STARTCHAR uni1ECC
ENCODING 7884
SWIDTH 778 0
DWIDTH 6 0
BBX 6 7 0 -1
BITMAP
1A40
2050
5020
5020
5050
2A80
0100
ENDCHAR
STARTCHAR uni1ECD
ENCODING 7885
SWIDTH 604 0
DWIDTH 5 0
BBX 5 7 0 -2
BITMAP
0400
6600
5140
5140
2A00
0400
0400
ENDCHAR
STARTCHAR uni1ECE
ENCODING 7886
SWIDTH 778 0
DWIDTH 6 0
BBX 6 8 0 0
BITMAP
0200
0100
1A40
2050
5020
5020
5050
2A80
ENDCHAR
STARTCHAR uni1ECF
ENCODING 7887
SWIDTH 604 0
DWIDTH 5 0
BBX 5 7 0 0
BITMAP
0400
0400
0400
6600
5140
5140
2A00
ENDCHAR
STARTCHAR uni1ED0
ENCODING 7888
SWIDTH 778 0
DWIDTH 6 0
BBX 6 8 0 0
BITMAP
0140
0500
1A40
2050
5020
5020
5050
2A80
ENDCHAR
STARTCHAR uni1ED1
ENCODING 7889
SWIDTH 604 0
DWIDTH 5 0
BBX 5 7 0 0
BITMAP
0100
1900
1400
6600
5140
5140
2A00
ENDCHAR
STARTCHAR uni1ED2
ENCODING 7890
SWIDTH 778 0
DWIDTH 6 0
BBX 6 8 0 0
BITMAP
1000
0500
1A40
2050
5020
5020
5050
2A80
ENDCHAR
STARTCHAR uni1ED3
ENCODING 7891
SWIDTH 604 0
DWIDTH 5 0
BBX 5 7 0 0
BITMAP
4000
1900
1400
6600
5140
5140
2A00
ENDCHAR
STARTCHAR uni1ED4
ENCODING 7892
SWIDTH 778 0
DWIDTH 6 0
BBX 6 9 0 0
BITMAP
0040
0140
0500
1A40
2050
5020
5020
5050
2A80
ENDCHAR
STARTCHAR uni1ED5
ENCODING 7893
SWIDTH 604 0
DWIDTH 5 0
BBX 5 7 0 0
BITMAP
0100
1900
1400
6600
5140
5140
2A00
ENDCHAR
STARTCHAR uni1ED6
ENCODING 7894
SWIDTH 778 0
DWIDTH 6 0
BBX 6 9 0 0
BITMAP
0400
0600
0500
1A40
2050
5020
5020
5050
2A80
ENDCHAR
STARTCHAR uni1ED7
ENCODING 7895
SWIDTH 604 0
DWIDTH 5 0
BBX 5 7 0 0
BITMAP
1500
1900
1400
6600
5140
5140
2A00
ENDCHAR
STARTCHAR uni1ED8
ENCODING 7896
SWIDTH 778 0
DWIDTH 6 0
BBX 6 9 0 -1
BITMAP
0500
0500
1A40
2050
5020
5020
5050
2A80
0100
ENDCHAR
STARTCHAR uni1ED9
ENCODING 7897
SWIDTH 604 0
DWIDTH 5 0
BBX 5 8 0 -2
BITMAP
1900
1500
6600
5140
5140
2A00
0400
0400
ENDCHAR
STARTCHAR uni1EDA
ENCODING 7898
SWIDTH 779 0
DWIDTH 6 0
BBX 7 8 0 0
BITMAP
0100
0100
1A54
2060
5020
5020
5050
2A80
ENDCHAR
STARTCHAR uni1EDB
ENCODING 7899
SWIDTH 608 0
DWIDTH 5 0
BBX 5 6 0 0
BITMAP
0800
0480
6640
4140
5140
2A00
ENDCHAR
STARTCHAR uni1EDC
ENCODING 7900
SWIDTH 779 0
DWIDTH 6 0
BBX 7 8 0 0
BITMAP
0400
0500
1A54
2060
5020
5020
5050
2A80
ENDCHAR
STARTCHAR uni1EDD
ENCODING 7901
SWIDTH 608 0
DWIDTH 5 0
BBX 5 6 0 0
BITMAP
1400
0480
6640
4140
5140
2A00
ENDCHAR
STARTCHAR uni1EDE
ENCODING 7902
SWIDTH 779 0
DWIDTH 6 0
BBX 7 8 0 0
BITMAP
0200
0100
1A54
2060
5020
5020
5050
2A80
ENDCHAR
STARTCHAR uni1EDF
ENCODING 7903
SWIDTH 608 0
DWIDTH 5 0
BBX 5 7 0 0
BITMAP
0400
0400
0480
6640
4140
5140
2A00
ENDCHAR
STARTCHAR uni1EE0
ENCODING 7904
SWIDTH 779 0
DWIDTH 6 0
BBX 7 7 0 0
BITMAP
0640
1A54
2060
5020
5020
5050
2A80
ENDCHAR
STARTCHAR uni1EE1
ENCODING 7905
SWIDTH 608 0
DWIDTH 5 0
BBX 5 6 0 0
BITMAP
2900
1480
6640
4140
5140
2A00
ENDCHAR
STARTCHAR uni1EE2
ENCODING 7906
SWIDTH 779 0
DWIDTH 6 0
BBX 7 7 0 -1
BITMAP
1A54
2060
5020
5020
5050
2A80
0100
ENDCHAR
STARTCHAR uni1EE3
ENCODING 7907
SWIDTH 608 0
DWIDTH 5 0
BBX 5 7 0 -2
BITMAP
0480
6640
4140
5140
2A00
0400
0400
ENDCHAR
STARTCHAR uni1EE4
ENCODING 7908
SWIDTH 728 0
DWIDTH 6 0
BBX 5 7 0 -1
BITMAP
5040
5080
5080
5080
5080
2A40
0400
ENDCHAR
STARTCHAR uni1EE5
ENCODING 7909
SWIDTH 613 0
DWIDTH 5 0
BBX 5 6 0 -2
BITMAP
5140
5140
5140
2A40
0400
0400
ENDCHAR
STARTCHAR uni1EE6
ENCODING 7910
SWIDTH 728 0
DWIDTH 6 0
BBX 5 8 0 0
BITMAP
0500
0500
5040
5080
5080
5080
5080
2A40
ENDCHAR
STARTCHAR uni1EE7
ENCODING 7911
SWIDTH 613 0
DWIDTH 5 0
BBX 5 7 0 0
BITMAP
0400
0400
0000
5140
5140
5140
2A40
ENDCHAR
STARTCHAR uni1EE8
ENCODING 7912
SWIDTH 768 0
DWIDTH 6 0
BBX 7 8 0 0
BITMAP
0100
0500
5054
5090
5080
5080
5080
2A40
ENDCHAR
STARTCHAR uni1EE9
ENCODING 7913
SWIDTH 665 0
DWIDTH 5 0
BBX 6 6 0 0
BITMAP
0800
0050
5180
5140
5140
2A40
ENDCHAR
STARTCHAR uni1EEA
ENCODING 7914
SWIDTH 768 0
DWIDTH 6 0
BBX 7 8 0 0
BITMAP
0400
0500
5054
5090
5080
5080
5080
2A40
ENDCHAR
STARTCHAR uni1EEB
ENCODING 7915
SWIDTH 665 0
DWIDTH 5 0
BBX 6 6 0 0
BITMAP
1400
0050
5180
5140
5140
2A40
ENDCHAR
STARTCHAR uni1EEC
ENCODING 7916
SWIDTH 768 0
DWIDTH 6 0
BBX 7 8 0 0
BITMAP
0500
0500
5054
5090
5080
5080
5080
2A40
ENDCHAR
STARTCHAR uni1EED
ENCODING 7917
SWIDTH 665 0
DWIDTH 5 0
BBX 6 7 0 0
BITMAP
0400
0400
0050
5180
5140
5140
2A40
ENDCHAR
STARTCHAR uni1EEE
ENCODING 7918
SWIDTH 768 0
DWIDTH 6 0
BBX 7 7 0 0
BITMAP
1600
5054
5090
5080
5080
5080
2A40
ENDCHAR
STARTCHAR uni1EEF
ENCODING 7919
SWIDTH 665 0
DWIDTH 5 0
BBX 6 6 0 0
BITMAP
1900
0150
5180
5140
5140
2A40
ENDCHAR
STARTCHAR uni1EF0
ENCODING 7920
SWIDTH 768 0
DWIDTH 6 0
BBX 7 7 0 -1
BITMAP
5054
5090
5080
5080
5080
2A40
0400
ENDCHAR
STARTCHAR uni1EF1
ENCODING 7921
SWIDTH 665 0
DWIDTH 5 0
BBX 6 7 0 -2
BITMAP
0050
5180
5140
5140
2A40
0400
0400
ENDCHAR
STARTCHAR Ygrave
ENCODING 7922
SWIDTH 560 0
DWIDTH 4 0
BBX 5 8 0 0
BITMAP
1000
1400
8140
5200
2500
1800
0800
0800
ENDCHAR
STARTCHAR ygrave
ENCODING 7923
SWIDTH 503 0
DWIDTH 4 0
BBX 4 8 0 -2
BITMAP
20
41
82
55
28
18
14
A0
ENDCHAR
STARTCHAR uni1EF4
ENCODING 7924
SWIDTH 560 0
DWIDTH 4 0
BBX 5 8 0 -2
BITMAP
8140
5200
2500
1800
0800
0800
0400
0400
ENDCHAR
STARTCHAR uni1EF5
ENCODING 7925
SWIDTH 503 0
DWIDTH 4 0
BBX 4 7 0 -2
BITMAP
41
82
55
28
18
15
A1
ENDCHAR
STARTCHAR uni1EF6
ENCODING 7926
SWIDTH 560 0
DWIDTH 4 0
BBX 5 8 0 0
BITMAP
0800
0800
8140
5200
2500
1800
0800
0800
ENDCHAR
STARTCHAR uni1EF7
ENCODING 7927
SWIDTH 503 0
DWIDTH 4 0
BBX 4 9 0 -2
BITMAP
14
04
41
82
55
28
18
14
A0
ENDCHAR
STARTCHAR uni1EF8
ENCODING 7928
SWIDTH 560 0
DWIDTH 4 0
BBX 5 7 0 0
BITMAP
2900
8140
5200
2500
1800
0800
0800
ENDCHAR
STARTCHAR uni1EF9
ENCODING 7929
SWIDTH 503 0
DWIDTH 4 0
BBX 4 8 0 -2
BITMAP
65
41
82
55
28
18
14
A0
ENDCHAR
STARTCHAR uni1F4D
ENCODING 8013
SWIDTH 790 0
DWIDTH 6 0
BBX 7 6 -1 0
BITMAP
5690
5814
1408
1408
1818
06A0
ENDCHAR
STARTCHAR uni2000
ENCODING 8192
SWIDTH 500 0
DWIDTH 4 0
BBX 1 1 0 0
BITMAP
00
ENDCHAR
STARTCHAR uni2001
ENCODING 8193
SWIDTH 1000 0
DWIDTH 8 0
BBX 1 1 0 0
BITMAP
00
ENDCHAR
STARTCHAR uni2002
ENCODING 8194
SWIDTH 500 0
DWIDTH 4 0
BBX 1 1 0 0
BITMAP
00
ENDCHAR
STARTCHAR uni2003
ENCODING 8195
SWIDTH 1000 0
DWIDTH 8 0
BBX 1 1 0 0
BITMAP
00
ENDCHAR
STARTCHAR uni2004
ENCODING 8196
SWIDTH 333 0
DWIDTH 3 0
BBX 1 1 0 0
BITMAP
00
ENDCHAR
STARTCHAR uni2005
ENCODING 8197
SWIDTH 250 0
DWIDTH 2 0
BBX 1 1 0 0
BITMAP
00
ENDCHAR
STARTCHAR uni2006
ENCODING 8198
SWIDTH 166 0
DWIDTH 1 0
BBX 1 1 0 0
BITMAP
00
ENDCHAR
STARTCHAR uni2007
ENCODING 8199
SWIDTH 559 0
DWIDTH 4 0
BBX 1 1 0 0
BITMAP
00
ENDCHAR
STARTCHAR uni2008
ENCODING 8200
SWIDTH 266 0
DWIDTH 2 0
BBX 1 1 0 0
BITMAP
00
ENDCHAR
STARTCHAR uni2009
ENCODING 8201
SWIDTH 200 0
DWIDTH 2 0
BBX 1 1 0 0
BITMAP
00
ENDCHAR
STARTCHAR uni200A
ENCODING 8202
SWIDTH 100 0
DWIDTH 1 0
BBX 1 1 0 0
BITMAP
00
ENDCHAR
STARTCHAR uni200B
ENCODING 8203
SWIDTH 0 0
DWIDTH 0 0
BBX 1 1 0 0
BITMAP
00
ENDCHAR
STARTCHAR endash
ENCODING 8211
SWIDTH 500 0
DWIDTH 4 0
BBX 4 1 0 2
BITMAP
55
ENDCHAR
STARTCHAR emdash
ENCODING 8212
SWIDTH 1000 0
DWIDTH 8 0
BBX 8 1 0 2
BITMAP
5555
ENDCHAR
STARTCHAR afii00208
ENCODING 8213
SWIDTH 1000 0
DWIDTH 8 0
BBX 8 1 0 2
BITMAP
5555
ENDCHAR
STARTCHAR underscoredbl
ENCODING 8215
SWIDTH 411 0
DWIDTH 3 0
BBX 4 2 0 -2
BITMAP
A9
A9
ENDCHAR
STARTCHAR quoteleft
ENCODING 8216
SWIDTH 169 0
DWIDTH 1 0
BBX 1 3 0 3
BITMAP
40
80
40
ENDCHAR
STARTCHAR quoteright
ENCODING 8217
SWIDTH 169 0
DWIDTH 1 0
BBX 1 2 0 4
BITMAP
40
80
ENDCHAR
STARTCHAR quotesinglbase
ENCODING 8218
SWIDTH 245 0
DWIDTH 2 0
BBX 2 2 0 -1
BITMAP
50
80
ENDCHAR
STARTCHAR quotereversed
ENCODING 8219
SWIDTH 169 0
DWIDTH 1 0
BBX 1 2 0 4
BITMAP
80
80
ENDCHAR
STARTCHAR quotedblleft
ENCODING 8220
SWIDTH 350 0
DWIDTH 3 0
BBX 3 3 0 3
BITMAP
44
94
40
ENDCHAR
STARTCHAR quotedblright
ENCODING 8221
SWIDTH 350 0
DWIDTH 3 0
BBX 3 2 0 4
BITMAP
54
94
ENDCHAR
STARTCHAR quotedblbase
ENCODING 8222
SWIDTH 404 0
DWIDTH 3 0
BBX 3 2 0 -1
BITMAP
98
94
ENDCHAR
STARTCHAR dagger
ENCODING 8224
SWIDTH 501 0
DWIDTH 4 0
BBX 4 6 0 0
BITMAP
14
69
14
14
14
14
ENDCHAR
STARTCHAR daggerdbl
ENCODING 8225
SWIDTH 509 0
DWIDTH 4 0
BBX 4 6 0 0
BITMAP
14
69
14
14
69
14
ENDCHAR
STARTCHAR bullet
ENCODING 8226
SWIDTH 375 0
DWIDTH 3 0
BBX 3 2 0 2
BITMAP
20
74
ENDCHAR
STARTCHAR ellipsis
ENCODING 8230
SWIDTH 784 0
DWIDTH 6 0
BBX 6 1 0 0
BITMAP
5560
ENDCHAR
STARTCHAR perthousand
ENCODING 8240
SWIDTH 1202 0
DWIDTH 10 0
BBX 10 6 0 0
BITMAP
644000
888000
895140
259540
085950
14A280
ENDCHAR
STARTCHAR minute
ENCODING 8242
SWIDTH 221 0
DWIDTH 2 0
BBX 1 2 0 4
BITMAP
40
40
ENDCHAR
STARTCHAR second
ENCODING 8243
SWIDTH 393 0
DWIDTH 3 0
BBX 3 2 0 4
BITMAP
44
48
ENDCHAR
STARTCHAR guilsinglleft
ENCODING 8249
SWIDTH 304 0
DWIDTH 2 0
BBX 2 4 0 0
BITMAP
10
50
50
10
ENDCHAR
STARTCHAR guilsinglright
ENCODING 8250
SWIDTH 304 0
DWIDTH 2 0
BBX 2 4 0 0
BITMAP
40
20
20
40
ENDCHAR
STARTCHAR exclamdbl
ENCODING 8252
SWIDTH 485 0
DWIDTH 4 0
BBX 4 6 0 0
BITMAP
54
58
54
54
04
59
ENDCHAR
STARTCHAR fraction
ENCODING 8260
SWIDTH 129 0
DWIDTH 1 0
BBX 5 6 -2 0
BITMAP
0040
0200
0500
0400
2000
5000
ENDCHAR
STARTCHAR zerosuperior
ENCODING 8304
SWIDTH 347 0
DWIDTH 3 0
BBX 3 4 0 2
BITMAP
60
88
88
64
ENDCHAR
STARTCHAR foursuperior
ENCODING 8308
SWIDTH 347 0
DWIDTH 3 0
BBX 3 4 0 2
BITMAP
10
64
A4
10
ENDCHAR
STARTCHAR fivesuperior
ENCODING 8309
SWIDTH 347 0
DWIDTH 3 0
BBX 3 4 0 2
BITMAP
50
90
14
54
ENDCHAR
STARTCHAR sixsuperior
ENCODING 8310
SWIDTH 347 0
DWIDTH 3 0
BBX 3 4 0 2
BITMAP
50
90
88
54
ENDCHAR
STARTCHAR sevensuperior
ENCODING 8311
SWIDTH 347 0
DWIDTH 3 0
BBX 3 4 0 2
BITMAP
54
14
20
10
ENDCHAR
STARTCHAR eightsuperior
ENCODING 8312
SWIDTH 347 0
DWIDTH 3 0
BBX 3 4 0 2
BITMAP
54
54
94
54
ENDCHAR
STARTCHAR ninesuperior
ENCODING 8313
SWIDTH 347 0
DWIDTH 3 0
BBX 3 4 0 2
BITMAP
54
88
54
50
ENDCHAR
STARTCHAR nsuperior
ENCODING 8319
SWIDTH 394 0
DWIDTH 3 0
BBX 3 3 0 3
BITMAP
54
44
44
ENDCHAR
STARTCHAR franc
ENCODING 8355
SWIDTH 571 0
DWIDTH 5 0
BBX 4 6 0 0
BITMAP
2A
20
20
2A
64
20
ENDCHAR
STARTCHAR afii08941
ENCODING 8356
SWIDTH 571 0
DWIDTH 5 0
BBX 5 6 0 0
BITMAP
1A00
2000
6500
6400
2400
AA40
ENDCHAR
STARTCHAR peseta
ENCODING 8359
SWIDTH 763 0
DWIDTH 6 0
BBX 6 6 0 0
BITMAP
6800
5600
5690
6880
5080
5090
ENDCHAR
STARTCHAR uni20AB
ENCODING 8363
SWIDTH 612 0
DWIDTH 5 0
BBX 5 8 0 -2
BITMAP
0640
1640
6640
5140
5240
2A40
1500
1500
ENDCHAR
STARTCHAR Euro
ENCODING 8364
SWIDTH 589 0
DWIDTH 5 0
BBX 5 6 0 0
BITMAP
0A40
2000
6900
6400
2000
1A40
ENDCHAR
STARTCHAR afii61248
ENCODING 8453
SWIDTH 824 0
DWIDTH 7 0
BBX 6 6 0 0
BITMAP
1440
4040
2600
0550
0960
15A0
ENDCHAR
STARTCHAR afii61289
ENCODING 8467
SWIDTH 520 0
DWIDTH 4 0
BBX 4 6 0 0
BITMAP
18
25
28
64
20
29
ENDCHAR
STARTCHAR afii61352
ENCODING 8470
SWIDTH 1019 0
DWIDTH 8 0
BBX 8 6 0 0
BITMAP
2040
6480
5899
55A2
5299
5199
ENDCHAR
STARTCHAR uni2120
ENCODING 8480
SWIDTH 793 0
DWIDTH 6 0
BBX 6 3 0 3
BITMAP
5510
5660
5960
ENDCHAR
STARTCHAR trademark
ENCODING 8482
SWIDTH 775 0
DWIDTH 6 0
BBX 6 3 0 3
BITMAP
6550
1550
1550
ENDCHAR
STARTCHAR Omega
ENCODING 8486
SWIDTH 782 0
DWIDTH 6 0
BBX 6 6 0 0
BITMAP
1A40
6050
5020
5020
2050
65E0
ENDCHAR
STARTCHAR estimated
ENCODING 8494
SWIDTH 619 0
DWIDTH 5 0
BBX 5 5 0 0
BITMAP
0400
1100
A640
5000
1500
ENDCHAR
STARTCHAR oneeighth
ENCODING 8539
SWIDTH 779 0
DWIDTH 6 0
BBX 6 6 0 0
BITMAP
6040
2140
2250
1960
14A0
2160
ENDCHAR
STARTCHAR threeeighths
ENCODING 8540
SWIDTH 779 0
DWIDTH 6 0
BBX 6 6 0 0
BITMAP
5440
1440
1650
5960
08A0
11A0
ENDCHAR
STARTCHAR fiveeighths
ENCODING 8541
SWIDTH 779 0
DWIDTH 6 0
BBX 6 6 0 0
BITMAP
5440
9040
0A50
5960
04A0
21A0
ENDCHAR
STARTCHAR seveneighths
ENCODING 8542
SWIDTH 779 0
DWIDTH 6 0
BBX 6 6 0 0
BITMAP
5440
1500
2150
1960
14A0
21A0
ENDCHAR
STARTCHAR partialdiff
ENCODING 8706
SWIDTH 581 0
DWIDTH 5 0
BBX 5 6 0 0
BITMAP
1900
0200
2A40
5200
8200
6900
ENDCHAR
STARTCHAR Delta
ENCODING 8710
SWIDTH 571 0
DWIDTH 5 0
BBX 5 6 0 0
BITMAP
0800
1800
2500
2200
5200
AA40
ENDCHAR
STARTCHAR product
ENCODING 8719
SWIDTH 738 0
DWIDTH 6 0
BBX 5 8 0 -2
BITMAP
2A80
5080
5080
5080
5080
5080
5080
5040
ENDCHAR
STARTCHAR summation
ENCODING 8721
SWIDTH 630 0
DWIDTH 5 0
BBX 5 8 0 -2
BITMAP
6A40
2000
1800
0900
0900
1400
2000
AA80
ENDCHAR
STARTCHAR minus
ENCODING 8722
SWIDTH 571 0
DWIDTH 5 0
BBX 4 1 0 2
BITMAP
55
ENDCHAR
STARTCHAR radical
ENCODING 8730
SWIDTH 548 0
DWIDTH 4 0
BBX 5 7 0 0
BITMAP
0040
0140
0100
5200
2500
2800
1800
ENDCHAR
STARTCHAR infinity
ENCODING 8734
SWIDTH 705 0
DWIDTH 6 0
BBX 5 3 0 1
BITMAP
6680
5980
1140
ENDCHAR
STARTCHAR integral
ENCODING 8747
SWIDTH 383 0
DWIDTH 3 0
BBX 3 8 0 -2
BITMAP
28
20
20
20
20
20
20
90
ENDCHAR
STARTCHAR approxequal
ENCODING 8776
SWIDTH 571 0
DWIDTH 5 0
BBX 4 3 0 1
BITMAP
5A
64
05
ENDCHAR
STARTCHAR notequal
ENCODING 8800
SWIDTH 571 0
DWIDTH 5 0
BBX 4 4 0 1
BITMAP
05
6A
59
25
ENDCHAR
STARTCHAR lessequal
ENCODING 8804
SWIDTH 571 0
DWIDTH 5 0
BBX 4 5 0 0
BITMAP
01
14
64
06
6A
ENDCHAR
STARTCHAR greaterequal
ENCODING 8805
SWIDTH 571 0
DWIDTH 5 0
BBX 4 5 0 0
BITMAP
50
19
06
60
6A
ENDCHAR
STARTCHAR lozenge
ENCODING 9674
SWIDTH 583 0
DWIDTH 5 0
BBX 4 6 0 0
BITMAP
08
25
52
52
25
08
ENDCHAR
STARTCHAR ff
ENCODING 64256
SWIDTH 678 0
DWIDTH 5 0
BBX 6 6 0 0
BITMAP
2590
6640
6640
2140
2140
2140
ENDCHAR
STARTCHAR uniFB01
ENCODING 64257
SWIDTH 591 0
DWIDTH 5 0
BBX 4 6 0 0
BITMAP
25
64
62
22
22
22
ENDCHAR
STARTCHAR uniFB02
ENCODING 64258
SWIDTH 591 0
DWIDTH 5 0
BBX 4 6 0 0
BITMAP
26
66
62
22
22
22
ENDCHAR
STARTCHAR uniFB03
ENCODING 64259
SWIDTH 932 0
DWIDTH 7 0
BBX 7 6 0 0
BITMAP
2594
6644
6648
2148
2148
2148
ENDCHAR
STARTCHAR uniFB04
ENCODING 64260
SWIDTH 932 0
DWIDTH 7 0
BBX 7 6 0 0
BITMAP
2598
6648
6648
2148
2148
2148
ENDCHAR
STARTCHAR uniFEFF
ENCODING 65279
SWIDTH 0 0
DWIDTH 0 0
BBX 1 1 0 0
BITMAP
00
ENDCHAR
STARTCHAR uniFFFC
ENCODING 65532
SWIDTH 1000 0
DWIDTH 8 0
BBX 8 8 0 -2
BITMAP
9556
4001
5545
6685
5595
4001
4001
5555
ENDCHAR
STARTCHAR uniFFFD
ENCODING 65533
SWIDTH 1000 0
DWIDTH 8 0
BBX 8 7 0 -1
BITMAP
0280
0AA0
2E68
7E7D
2EF8
09A0
0280
ENDCHAR
STARTCHAR .notdef
ENCODING -1
SWIDTH 600 0
DWIDTH 5 0
BBX 4 6 0 0
BITMAP
56
41
41
41
41
56
ENDCHAR
STARTCHAR null
ENCODING -1
SWIDTH 0 0
DWIDTH 0 0
BBX 1 1 0 0
BITMAP
00
ENDCHAR
STARTCHAR nonmarkingreturn
ENCODING -1
SWIDTH 509 0
DWIDTH 4 0
BBX 1 1 0 0
BITMAP
00
ENDCHAR
STARTCHAR I.alt
ENCODING -1
SWIDTH 333 0
DWIDTH 3 0
BBX 2 6 0 0
BITMAP
60
20
20
20
20
60
ENDCHAR
STARTCHAR Igrave.alt
ENCODING -1
SWIDTH 333 0
DWIDTH 3 0
BBX 2 8 0 0
BITMAP
40
10
60
20
20
20
20
60
ENDCHAR
STARTCHAR Iacute.alt
ENCODING -1
SWIDTH 333 0
DWIDTH 3 0
BBX 2 8 0 0
BITMAP
10
10
60
20
20
20
20
60
ENDCHAR
STARTCHAR Icircumflex.alt
ENCODING -1
SWIDTH 333 0
DWIDTH 3 0
BBX 3 8 0 0
BITMAP
10
54
60
20
20
20
20
60
ENDCHAR
STARTCHAR Idieresis.alt
ENCODING -1
SWIDTH 333 0
DWIDTH 3 0
BBX 3 7 0 0
BITMAP
44
60
20
20
20
20
60
ENDCHAR
STARTCHAR Itilde.alt
ENCODING -1
SWIDTH 333 0
DWIDTH 3 0
BBX 3 7 0 0
BITMAP
A4
60
20
20
20
20
60
ENDCHAR
STARTCHAR Imacron.alt
ENCODING -1
SWIDTH 333 0
DWIDTH 3 0
BBX 3 7 0 0
BITMAP
64
60
20
20
20
20
60
ENDCHAR
STARTCHAR Ibreve.alt
ENCODING -1
SWIDTH 333 0
DWIDTH 3 0
BBX 3 7 0 0
BITMAP
64
60
20
20
20
20
60
ENDCHAR
STARTCHAR Iogonek.alt
ENCODING -1
SWIDTH 333 0
DWIDTH 3 0
BBX 2 8 0 -2
BITMAP
60
20
20
20
20
60
50
50
ENDCHAR
STARTCHAR Idotaccent.alt
ENCODING -1
SWIDTH 333 0
DWIDTH 3 0
BBX 2 7 0 0
BITMAP
10
60
20
20
20
20
60
ENDCHAR
STARTCHAR IJ.alt
ENCODING -1
SWIDTH 600 0
DWIDTH 5 0
BBX 4 8 0 -2
BITMAP
61
22
22
22
22
62
02
05
ENDCHAR
STARTCHAR Iotatonos.alt
ENCODING -1
SWIDTH 449 0
DWIDTH 4 0
BBX 3 6 0 0
BITMAP
98
48
08
08
08
18
ENDCHAR
STARTCHAR Iota.alt
ENCODING -1
SWIDTH 333 0
DWIDTH 3 0
BBX 2 6 0 0
BITMAP
60
20
20
20
20
60
ENDCHAR
STARTCHAR Iotadieresis.alt
ENCODING -1
SWIDTH 333 0
DWIDTH 3 0
BBX 3 7 0 0
BITMAP
44
60
20
20
20
20
60
ENDCHAR
STARTCHAR afii10055.alt
ENCODING -1
SWIDTH 333 0
DWIDTH 3 0
BBX 2 6 0 0
BITMAP
60
20
20
20
20
60
ENDCHAR
STARTCHAR afii10056.alt
ENCODING -1
SWIDTH 333 0
DWIDTH 3 0
BBX 3 7 0 0
BITMAP
44
60
20
20
20
20
60
ENDCHAR
STARTCHAR cyrillicbreve
ENCODING -1
SWIDTH 577 0
DWIDTH 5 0
BBX 3 1 1 5
BITMAP
98
ENDCHAR
STARTCHAR caroncommaaccent
ENCODING -1
SWIDTH 500 0
DWIDTH 4 0
BBX 2 1 1 5
BITMAP
50
ENDCHAR
STARTCHAR commaaccent
ENCODING -1
SWIDTH 500 0
DWIDTH 4 0
BBX 2 2 1 -2
BITMAP
10
40
ENDCHAR
STARTCHAR commaaccentrotate
ENCODING -1
SWIDTH 500 0
DWIDTH 4 0
BBX 2 1 1 5
BITMAP
50
ENDCHAR
STARTCHAR dasiaoxia
ENCODING -1
SWIDTH 399 0
DWIDTH 3 0
BBX 3 2 0 4
BITMAP
14
50
ENDCHAR
STARTCHAR uni04C0.alt
ENCODING -1
SWIDTH 333 0
DWIDTH 3 0
BBX 2 6 0 0
BITMAP
60
20
20
20
20
60
ENDCHAR
STARTCHAR uni04CF.alt
ENCODING -1
SWIDTH 333 0
DWIDTH 3 0
BBX 2 6 0 0
BITMAP
60
20
20
20
20
60
ENDCHAR
STARTCHAR uni1EC8.alt
ENCODING -1
SWIDTH 333 0
DWIDTH 3 0
BBX 2 8 0 0
BITMAP
20
20
60
20
20
20
20
60
ENDCHAR
STARTCHAR uni1ECA.alt
ENCODING -1
SWIDTH 333 0
DWIDTH 3 0
BBX 2 8 0 -2
BITMAP
60
20
20
20
20
60
10
10
ENDCHAR
STARTCHAR circumflexacutecomb
ENCODING -1
SWIDTH 0 0
DWIDTH 0 0
BBX 3 2 -3 5
BITMAP
04
90
ENDCHAR
STARTCHAR circumflexgravecomb
ENCODING -1
SWIDTH 0 0
DWIDTH 0 0
BBX 3 2 -4 5
BITMAP
40
64
ENDCHAR
STARTCHAR circumflexhookcomb
ENCODING -1
SWIDTH 0 0
DWIDTH 0 0
BBX 3 2 -3 5
BITMAP
14
90
ENDCHAR
STARTCHAR circumflextildecomb
ENCODING -1
SWIDTH 0 0
DWIDTH 0 0
BBX 3 2 -4 5
BITMAP
54
24
ENDCHAR
STARTCHAR breveacutecomb
ENCODING -1
SWIDTH 0 0
DWIDTH 0 0
BBX 3 2 -4 5
BITMAP
14
54
ENDCHAR
STARTCHAR brevegravecomb
ENCODING -1
SWIDTH 0 0
DWIDTH 0 0
BBX 3 2 -4 5
BITMAP
10
54
ENDCHAR
STARTCHAR brevehookcomb
ENCODING -1
SWIDTH 0 0
DWIDTH 0 0
BBX 3 2 -4 5
BITMAP
20
54
ENDCHAR
STARTCHAR brevetildecomb
ENCODING -1
SWIDTH 0 0
DWIDTH 0 0
BBX 3 2 -4 5
BITMAP
54
54
ENDCHAR
STARTCHAR cyrillichookleft
ENCODING -1
SWIDTH 205 0
DWIDTH 2 0
BBX 2 2 0 -2
BITMAP
50
50
ENDCHAR
STARTCHAR cyrillicbighookUC
ENCODING -1
SWIDTH 205 0
DWIDTH 2 0
BBX 2 3 0 -2
BITMAP
10
50
40
ENDCHAR
STARTCHAR cyrillicbighookLC
ENCODING -1
SWIDTH 205 0
DWIDTH 2 0
BBX 2 3 0 -2
BITMAP
10
50
40
ENDCHAR
STARTCHAR one.pnum
ENCODING -1
SWIDTH 396 0
DWIDTH 3 0
BBX 3 6 0 0
BITMAP
24
64
14
14
14
14
ENDCHAR
STARTCHAR zero.os
ENCODING -1
SWIDTH 566 0
DWIDTH 5 0
BBX 4 5 0 0
BITMAP
14
66
82
52
29
ENDCHAR
STARTCHAR one.os
ENCODING -1
SWIDTH 369 0
DWIDTH 3 0
BBX 3 5 0 0
BITMAP
10
64
14
14
14
ENDCHAR
STARTCHAR two.os
ENCODING -1
SWIDTH 509 0
DWIDTH 4 0
BBX 4 5 0 0
BITMAP
14
56
05
14
AA
ENDCHAR
STARTCHAR three.os
ENCODING -1
SWIDTH 571 0
DWIDTH 5 0
BBX 4 7 0 -2
BITMAP
14
56
02
19
02
56
14
ENDCHAR
STARTCHAR four.os
ENCODING -1
SWIDTH 569 0
DWIDTH 5 0
BBX 5 7 0 -2
BITMAP
0100
0A00
1600
5200
AA40
0200
0100
ENDCHAR
STARTCHAR five.os
ENCODING -1
SWIDTH 571 0
DWIDTH 5 0
BBX 4 7 0 -2
BITMAP
15
64
50
16
02
56
14
ENDCHAR
STARTCHAR six.os
ENCODING -1
SWIDTH 571 0
DWIDTH 5 0
BBX 4 6 0 0
BITMAP
19
20
59
92
52
2A
ENDCHAR
STARTCHAR seven.os
ENCODING -1
SWIDTH 571 0
DWIDTH 5 0
BBX 4 7 0 -2
BITMAP
55
16
02
08
08
24
10
ENDCHAR
STARTCHAR eight.os
ENCODING -1
SWIDTH 571 0
DWIDTH 5 0
BBX 4 6 0 0
BITMAP
29
52
25
26
82
66
ENDCHAR
STARTCHAR nine.os
ENCODING -1
SWIDTH 571 0
DWIDTH 5 0
BBX 4 7 0 -2
BITMAP
14
56
82
66
02
05
14
ENDCHAR
STARTCHAR g.alt
ENCODING -1
SWIDTH 612 0
DWIDTH 5 0
BBX 5 7 0 -2
BITMAP
0400
6640
9140
5240
2A40
0200
2A00
ENDCHAR
STARTCHAR gcircumflex.alt
ENCODING -1
SWIDTH 612 0
DWIDTH 5 0
BBX 5 8 0 -2
BITMAP
1900
1500
6640
9140
5240
2A40
0200
2A00
ENDCHAR
STARTCHAR gbreve.alt
ENCODING -1
SWIDTH 612 0
DWIDTH 5 0
BBX 5 8 0 -2
BITMAP
1500
1400
6640
9140
5240
2A40
0200
2A00
ENDCHAR
STARTCHAR gdot.alt
ENCODING -1
SWIDTH 612 0
DWIDTH 5 0
BBX 5 8 0 -2
BITMAP
0400
0400
6640
9140
5240
2A40
0200
2A00
ENDCHAR
STARTCHAR gcommaaccent.alt
ENCODING -1
SWIDTH 612 0
DWIDTH 5 0
BBX 5 8 0 -2
BITMAP
0800
1400
6640
9140
5240
2A40
0200
2A00
ENDCHAR
ENDFONT
